<svg width="24" height="24" viewBox="0 0 24 24" fill="none" xmlns="http://www.w3.org/2000/svg">
<rect width="24" height="24" fill="white"/>
<g clip-path="url(#clip0_7_9193)">
<path fill-rule="evenodd" clip-rule="evenodd" d="M21 7.30167C20.9582 7.64066 20.8902 7.97591 20.7968 8.30444C20.605 8.72433 20.605 8.72433 20.4689 8.95825C20.2255 9.30518 19.9395 9.62018 19.6176 9.89583C19.3147 10.1297 19.3147 10.1297 18.9791 10.3598C18.5738 10.5868 18.1557 10.7904 17.7271 10.9695C17.5527 11.0075 17.3834 11.066 17.2228 11.144C17.2228 11.1862 17.2228 11.1862 17.2343 11.1996C17.7596 11.2555 18.2629 11.4406 18.6992 11.7384C18.9223 11.9171 19.1283 12.116 19.3147 12.3328C19.5281 12.6348 19.7008 12.9636 19.8285 13.3106C19.8592 13.4544 19.8918 13.5944 19.9225 13.7343C19.9435 13.9625 19.9435 14.1888 19.9435 14.4169C19.8639 15.0637 19.6355 15.6832 19.2763 16.2269C19.0481 16.5452 19.0481 16.5452 18.8238 16.8289C18.4403 17.2354 17.961 17.6937 17.4433 17.9276C17.0599 18.2094 16.5556 18.3858 16.1223 18.5661C15.8481 18.6447 15.5624 18.7386 15.2902 18.8249C15.0574 18.8574 14.8269 18.9041 14.5999 18.9649C14.3974 18.9766 14.1957 19.0003 13.996 19.0358C11.2369 19.1508 8.451 19.0991 5.69195 19.1029C5.66319 19.0454 5.6421 18.9629 5.71496 18.9303C7.03792 18.8747 8.37047 18.8115 9.69152 18.7654C9.95661 18.7761 10.2221 18.7645 10.4853 18.7309C11.3644 18.7162 12.2417 18.6464 13.1121 18.5219C13.1638 18.497 13.3977 18.451 13.7467 18.3571C15.4723 17.801 17.0311 16.7101 17.752 14.9998C17.7746 14.9155 17.806 14.8339 17.846 14.7563C17.8843 14.5646 17.9227 14.3728 17.9649 14.1811C17.9744 13.7056 17.9744 13.7056 17.9649 13.5196C17.9043 13.0531 17.7312 12.6083 17.4606 12.2235C17.3417 12.0893 17.2228 11.957 17.1078 11.8247C16.5889 11.3754 15.9442 11.0969 15.2614 11.0271C15.2614 10.9715 15.2787 10.9638 15.3285 10.935C15.4742 10.9007 15.6166 10.8539 15.7542 10.7951C16.9046 10.2966 17.9227 9.6274 18.5688 8.52685C18.6321 8.37921 18.6992 8.22966 18.7605 8.07819C18.8722 7.71179 18.9442 7.33447 18.9753 6.95271C18.96 6.7859 18.9504 6.61717 18.9389 6.44653C18.9043 6.33724 18.8737 6.22604 18.8411 6.11484C18.7223 5.81756 18.5434 5.54799 18.3157 5.32297C17.9244 5.00336 17.4654 4.77714 16.9736 4.66149C16.972 4.65004 16.972 4.63843 16.9736 4.62698C17.2507 4.60016 17.53 4.60595 17.8057 4.64423C17.9906 4.67974 18.1776 4.70344 18.3656 4.71517L18.8104 4.80913C19.2837 4.92297 19.7338 5.11755 20.141 5.38433L20.5015 5.70644C20.5993 5.85791 20.6932 6.00363 20.7948 6.15126C20.8409 6.29507 20.8888 6.43503 20.9386 6.575C20.9674 6.8185 20.9943 7.06008 21.0019 7.30933L21 7.30167ZM17.0752 6.66511C16.987 7.15403 16.987 7.15403 16.918 7.46848C16.7558 7.88953 16.542 8.28883 16.2814 8.65723L16.2431 8.67832C15.5176 9.48617 14.5916 10.0881 13.5588 10.4231C13.3479 10.473 13.3479 10.473 13.323 10.4902V10.5381C13.3939 10.6091 13.53 10.5957 13.6202 10.5976C13.6881 10.6206 13.7593 10.6329 13.8311 10.634C14.2197 10.7485 14.5931 10.9094 14.9431 11.1133C14.97 11.1479 15.1349 11.2629 15.4071 11.5102C15.4876 11.6099 15.5682 11.702 15.6487 11.7978C15.813 12.0488 15.9469 12.3185 16.0475 12.6012C16.0782 12.7488 16.1108 12.8965 16.1415 13.0384C16.1565 13.2297 16.161 13.4217 16.1549 13.6136C16.1204 13.8168 16.0859 14.0162 16.0552 14.2156C16.0015 14.3345 15.9804 14.4284 15.8864 14.67C15.6851 15.0861 15.434 15.4763 15.1387 15.8319C14.7656 16.2112 14.3644 16.5618 13.9384 16.8807C13.8516 16.9106 13.7719 16.9583 13.7045 17.0207C13.0543 17.3703 12.3749 17.6628 11.6741 17.895C11.2331 17.9851 10.7921 18.0695 10.3453 18.1289C9.51896 18.173 9.51896 18.173 9.28505 18.1979C8.56029 18.219 5.76097 18.359 5.71112 18.3494C5.69429 18.3202 5.68543 18.2872 5.68543 18.2535C5.68543 18.2199 5.69429 18.1868 5.71112 18.1577C6.45888 17.941 7.22966 17.6898 7.98701 17.5038C8.05028 17.4751 9.32915 17.1089 9.45569 17.059C10.0309 16.9401 10.5927 16.7177 11.1583 16.5701C11.2848 16.5241 11.9636 16.34 12.5925 16.1502C13.1485 16.0179 13.7429 15.8434 14.2778 15.6574C14.2973 15.626 14.3048 15.5885 14.2989 15.552L14.2567 15.5213C14.2049 15.5213 13.4802 15.713 10.0961 16.5241C10.0829 16.5338 10.0688 16.5421 10.0539 16.549C9.43268 16.6679 8.80955 16.85 8.19024 16.99C8.14231 17.0073 8.0963 17.0245 8.05028 17.0379C5.70154 17.5978 5.70153 17.5978 5.64785 17.6131H5.58266C5.53281 17.5499 5.50597 17.5403 5.51555 17.4521C5.71436 17.3214 5.91979 17.2011 6.13102 17.0916C6.24223 17.0437 7.31594 16.434 7.42522 16.386C8.27844 15.876 9.16617 15.4044 10.0232 14.9001C10.7422 14.5166 11.467 14.0929 12.1879 13.6979L12.2608 13.6404C12.8091 13.3605 13.3441 13.0441 13.8828 12.7431C14.1419 12.6273 14.3891 12.4867 14.621 12.3232C14.6301 12.3111 14.6359 12.2969 14.6379 12.2819C14.64 12.2669 14.6381 12.2516 14.6325 12.2376C14.6269 12.2235 14.6178 12.2112 14.6061 12.2016C14.5943 12.1921 14.5803 12.1858 14.5654 12.1832C14.0439 12.4516 13.5262 12.722 13.0085 12.9866C12.9491 13.003 12.8931 13.0303 12.8436 13.0671C11.3615 13.8341 11.3615 13.834 11.2388 13.8762C11.072 13.9759 10.6233 14.2003 10.585 14.2329C9.94269 14.5531 9.29463 14.8924 8.66766 15.2356C8.64819 15.2415 8.62833 15.246 8.60822 15.249C8.2631 15.481 7.84129 15.6325 7.48658 15.8549C6.86728 16.1617 6.23456 16.48 5.62676 16.8136C5.55582 16.8309 5.08415 17.1549 5.13592 16.8366C5.35258 16.6353 5.57116 16.4282 5.78782 16.2211C5.86669 16.1353 5.95334 16.057 6.04666 15.9872C6.28053 15.7075 6.54556 15.4553 6.8366 15.2356C6.85386 15.2107 6.87495 15.1877 6.89604 15.1589C7.46166 14.6374 8.03111 14.0986 8.57371 13.5503C10.1919 12.0011 11.8191 10.4602 13.4553 8.92757C13.4991 8.86004 13.5574 8.80307 13.6259 8.76076C14.6191 7.80209 14.6824 7.73499 15.8577 6.61718C15.9344 6.55774 15.9344 6.55774 15.9631 6.51556C15.9631 6.32382 15.85 6.41011 15.7446 6.4868C15.455 6.77824 15.1406 7.03899 14.8434 7.31893C14.7322 7.47615 14.5328 7.59311 14.3986 7.74649C14.1053 8.04291 13.7927 8.3196 13.4629 8.57478C13.223 8.81701 12.9668 9.04251 12.696 9.24969C11.7661 10.1413 10.748 10.9523 9.81998 11.8515C9.36557 12.2081 8.97252 12.6626 8.51236 13.0115C8.38965 13.1457 8.38965 13.1457 7.56711 13.9107L7.48083 13.9702C6.56434 14.8157 5.62292 15.6479 4.68918 16.4742C4.58756 16.4742 4.56072 16.4493 4.5703 16.34C5.69003 14.7122 6.81168 13.0805 7.91798 11.4393C8.36472 10.7606 8.80954 10.0646 9.28505 9.40307C9.62058 8.90648 9.64742 8.85088 9.7663 8.68982C10.631 7.40712 11.536 6.12059 12.3815 4.82255C12.4832 4.72093 12.4563 4.65574 12.3202 4.66916C11.6031 5.67576 10.8573 6.67278 10.1517 7.69089C10.0328 7.84044 9.80273 8.17981 7.4003 11.5467C7.34662 11.6387 6.48381 12.8159 6.42054 12.8888C5.6536 13.9721 4.87133 15.0631 4.08138 16.1291C4.0392 16.1617 3.99702 16.1962 3.94525 16.1617V16.0601C4.50703 14.5933 5.09565 13.1189 5.71687 11.6713C6.61611 9.41841 7.50767 7.15403 8.42033 4.90499C8.42134 4.87281 8.41041 4.84139 8.38965 4.81679C8.37348 4.81571 8.35727 4.81805 8.34207 4.82367C8.32687 4.82928 8.31303 4.83805 8.30145 4.84939C7.60929 6.40819 6.88837 7.96507 6.19238 9.52004C6.16362 9.55838 5.42544 11.1996 5.22028 11.6176C5.12825 11.8381 5.05539 11.9723 4.96144 12.1928C4.36323 13.4525 3.79378 14.7352 3.2205 16.0083C3.18726 16.0253 3.15046 16.0342 3.11313 16.0342C3.07579 16.0342 3.03899 16.0253 3.00575 16.0083C3.08374 15.6272 3.18101 15.2503 3.29719 14.879C3.32211 14.8253 3.40264 14.4955 3.42565 14.4418C3.44674 14.3249 3.47167 14.2693 3.7516 13.1898C3.89923 12.6511 4.04495 12.1123 4.19642 11.5735C4.2156 11.4585 5.59416 6.50406 5.60375 6.42736C5.64977 6.27014 5.69578 6.11291 5.74372 5.95569C5.92011 5.26161 6.10418 4.61355 6.24798 4.06328C6.26031 4.03259 6.28259 4.00693 6.31125 3.99042C8.76545 3.99042 11.2235 3.99042 13.6777 3.99042C14.4374 4.0137 15.186 4.17955 15.8845 4.47934C15.9615 4.54034 16.0459 4.59125 16.1357 4.63081C16.2979 4.74688 16.4511 4.87507 16.5939 5.01428C16.6706 5.12741 16.7493 5.23861 16.8279 5.34982C16.8739 5.46678 16.9199 5.58182 16.9678 5.69686C17.0043 5.86558 17.0388 6.03239 17.0733 6.19728C17.0733 6.35067 17.0733 6.50022 17.0733 6.65169L17.0752 6.66511Z" fill="#F37321"/>
</g>
<defs>
<clipPath id="clip0_7_9193">
<rect width="18" height="15.1106" fill="white" transform="translate(3 4)"/>
</clipPath>
</defs>
</svg>
