<svg width="24" height="24" viewBox="0 0 24 24" fill="none" xmlns="http://www.w3.org/2000/svg">
<rect width="24" height="24" fill="white"/>
<g clip-path="url(#clip0_7_9175)">
<path fill-rule="evenodd" clip-rule="evenodd" d="M11.9969 17.6263L6.30423 22.6569L9.49089 15.7824L3 12.0327L10.4129 12.8247L11.9969 1L13.5748 12.8247L21 12.0265L14.5029 15.7824L17.6896 22.6693L11.9969 17.6263Z" fill="#231F20"/>
<path fill-rule="evenodd" clip-rule="evenodd" d="M11.9969 17.484L6.6198 22.2362L9.62702 15.7391L3.50121 12.1935L10.5119 12.9422L11.9969 1.81677L13.482 12.9422L20.4926 12.1935L14.3606 15.7391L17.3678 22.2362L11.9969 17.484Z" fill="#EF4123"/>
<path fill-rule="evenodd" clip-rule="evenodd" d="M13.482 12.9422H10.5119L9.63321 15.7391L11.9969 17.484L14.3606 15.7391L13.482 12.9422Z" fill="#007DC5"/>
<path fill-rule="evenodd" clip-rule="evenodd" d="M11.9907 16.8838C11.6111 16.8838 11.24 16.7711 10.9244 16.5601C10.6088 16.3491 10.363 16.0491 10.218 15.6982C10.073 15.3474 10.0354 14.9614 10.1099 14.5891C10.1844 14.2169 10.3677 13.8751 10.6366 13.6071C10.9054 13.3391 11.2478 13.1569 11.6203 13.0835C11.9928 13.0102 12.3787 13.0491 12.7291 13.1952C13.0795 13.3414 13.3786 13.5882 13.5887 13.9044C13.7987 14.2207 13.9101 14.5922 13.9089 14.9718C13.9089 15.2234 13.8592 15.4726 13.7628 15.7049C13.6663 15.9373 13.5249 16.1484 13.3467 16.326C13.1685 16.5036 12.957 16.6443 12.7243 16.74C12.4916 16.8358 12.2423 16.8846 11.9907 16.8838Z" fill="#231F20"/>
<path fill-rule="evenodd" clip-rule="evenodd" d="M11.9907 16.7786C11.6334 16.7786 11.284 16.6727 10.9869 16.4741C10.6898 16.2756 10.4582 15.9934 10.3214 15.6633C10.1847 15.3331 10.1489 14.9698 10.2186 14.6193C10.2883 14.2688 10.4604 13.9469 10.7131 13.6942C10.9658 13.4415 11.2877 13.2694 11.6382 13.1997C11.9887 13.13 12.352 13.1658 12.6821 13.3025C13.0123 13.4393 13.2945 13.6709 13.493 13.968C13.6915 14.2651 13.7975 14.6144 13.7975 14.9718C13.7975 15.451 13.6072 15.9106 13.2683 16.2494C12.9295 16.5882 12.4699 16.7786 11.9907 16.7786Z" fill="white"/>
<path d="M12.8113 16.152C12.8257 16.1655 12.8437 16.1746 12.8632 16.1784H12.8384L12.8046 16.1521C12.7972 16.1518 12.7898 16.1502 12.7827 16.1475H12.7518H12.7209C12.6884 16.1298 12.6525 16.1192 12.6157 16.1165C12.5518 16.1198 12.4878 16.1198 12.4239 16.1165H12.3558H12.2939C12.285 16.1166 12.2764 16.1136 12.2696 16.1079C12.2628 16.1023 12.2583 16.0943 12.2568 16.0856C12.2538 16.0428 12.2434 16.0009 12.2259 15.9618C12.2229 15.9476 12.2222 15.9329 12.2239 15.9185H12.2073H12.1887H12.1516H12.1514C12.1515 15.9227 12.1516 15.9268 12.1516 15.9309L12.1021 15.9247V15.9185H12.0959V15.9557V16.0175C12.0959 16.067 12.1269 16.067 12.0959 16.067H12.0868C12.0896 16.0813 12.0911 16.0959 12.0911 16.1104C12.0942 16.108 12.0979 16.1058 12.1021 16.1042C12.133 16.0918 12.1454 16.1042 12.164 16.1042H12.2011C12.2163 16.1086 12.2308 16.1148 12.2444 16.1227H12.2506C12.2584 16.1193 12.2668 16.1175 12.2753 16.1175C12.2839 16.1175 12.2923 16.1193 12.3001 16.1227H12.2692V16.1311C12.2864 16.1394 12.3029 16.149 12.3187 16.1598L12.2692 16.1378V16.1536C12.253 16.1581 12.2359 16.1581 12.2197 16.1536C12.1992 16.1568 12.1783 16.1568 12.1578 16.1536H12.1207H12.087C12.0867 16.162 12.0876 16.1703 12.0897 16.1784H12.0588L12.0155 16.1475C12.0127 16.1371 12.0111 16.1264 12.0107 16.1158L11.9783 16.1253C11.9784 16.1261 11.9784 16.1273 11.9784 16.1289V16.1351C11.9735 16.138 11.9694 16.1412 11.966 16.1446V16.1784C11.966 16.1784 11.966 16.2403 11.9165 16.2217C11.9165 16.2217 11.9165 16.2217 11.9474 16.1846C11.9474 16.1846 11.9474 16.1626 11.966 16.1446V16.1289L11.9783 16.1253C11.9778 16.1195 11.9744 16.1289 11.9474 16.1289V16.098H12.0093H12.0111C12.0118 16.0896 12.0133 16.0813 12.0155 16.0732H11.9722C11.9625 16.0688 11.9519 16.0665 11.9412 16.0665C11.9305 16.0665 11.92 16.0688 11.9103 16.0732H11.867H11.836C11.8331 16.0664 11.8316 16.059 11.8316 16.0516C11.8316 16.0441 11.8331 16.0368 11.836 16.0299H11.7849L11.7556 16.1227H11.6318V16.0485H11.5266C11.5203 16.0439 11.5128 16.0415 11.505 16.0415C11.4972 16.0415 11.4896 16.0439 11.4833 16.0485H11.4524C11.4524 16.0485 11.4524 16.0918 11.4957 16.0918H11.6071L11.5837 16.1676C11.6233 16.1862 11.6588 16.213 11.6875 16.2465C11.691 16.2586 11.691 16.2715 11.6875 16.2836V16.2774L11.638 16.2465L11.5081 16.197H11.471H11.4276H11.3905C11.3843 16.1598 11.3534 16.1598 11.3534 16.1598L11.3163 16.1227V16.0918C11.3156 16.086 11.315 16.0802 11.3146 16.0744C11.314 16.0723 11.3134 16.0701 11.3129 16.0679L11.2977 16.0546V16.0175C11.295 16.0053 11.295 15.9926 11.2977 15.9804C11.2948 15.9703 11.2948 15.9596 11.2977 15.9495V15.9C11.3014 15.8672 11.3119 15.8356 11.3286 15.8071L11.372 15.7515L11.4276 15.6896L11.4772 15.6153H11.5192L11.5019 15.5473H11.5514H11.638L11.6999 15.5658C11.7027 15.6047 11.7029 15.6437 11.7007 15.6826C11.7021 15.6875 11.7034 15.6924 11.7047 15.6973C11.7224 15.679 11.7415 15.6619 11.7618 15.6463L11.8299 15.6122L11.836 15.603V15.5658L11.8793 15.5163C11.8772 15.5479 11.8714 15.579 11.862 15.6091H11.8854C11.8876 15.603 11.8897 15.5968 11.8917 15.5906C11.8952 15.573 11.8992 15.5556 11.9039 15.5384C11.8991 15.5161 11.8935 15.494 11.8871 15.4722L11.8113 15.5596L11.7494 15.6463C11.7459 15.63 11.7459 15.6131 11.7494 15.5968C11.7462 15.5473 11.7462 15.4977 11.7494 15.4483C11.7423 15.4198 11.7423 15.3901 11.7494 15.3616V15.3307C11.7662 15.2877 11.787 15.2462 11.8113 15.2069C11.8139 15.2017 11.8166 15.1964 11.8194 15.1912C11.8173 15.1826 11.8152 15.1739 11.813 15.1653C11.7894 15.2221 11.7684 15.2816 11.7432 15.3369C11.7401 15.2812 11.7401 15.2255 11.7432 15.1698C11.7402 15.1514 11.7402 15.1326 11.7432 15.1141V15.0646V15.0275C11.7438 15.0172 11.7438 15.0069 11.7432 14.9966C11.7487 14.9823 11.7547 14.9683 11.7612 14.9546C11.7542 14.9259 11.7473 14.8971 11.7404 14.8684L11.7185 14.8975L11.6829 14.9554C11.6821 15.0207 11.6837 15.086 11.6875 15.1512L11.6504 15.1698V14.8852V14.7491C11.6536 14.6975 11.6536 14.6459 11.6504 14.5944H11.6713L11.6566 14.5387V14.5015V14.4644C11.6546 14.4595 11.6534 14.4544 11.6531 14.4492C11.6445 14.4625 11.635 14.4765 11.6318 14.4954C11.6301 14.5058 11.6293 14.5128 11.6283 14.5176C11.6316 14.5184 11.6348 14.5193 11.638 14.5201C11.6439 14.6211 11.6439 14.7223 11.638 14.8233V14.9285C11.6444 14.9943 11.6444 15.0606 11.638 15.1265V15.275V15.3245V15.374L11.6504 15.3807V15.3555V15.2193L11.6813 15.2008C11.6593 15.2625 11.653 15.3211 11.6511 15.3811L11.7185 15.4173H11.6524C11.6537 15.4297 11.653 15.4422 11.6504 15.4544V15.4544C11.6504 15.4419 11.6504 15.4296 11.6505 15.4173H11.5514C11.5514 15.3245 11.5019 15.2317 11.4833 15.1389L11.4214 15.2564C11.4214 15.1698 11.3781 15.0708 11.3534 14.9842V14.9161C11.3504 14.8915 11.3504 14.8665 11.3534 14.8419C11.3534 14.7077 11.2873 14.5736 11.2498 14.4335H11.2049C11.2043 14.4232 11.2043 14.4128 11.2049 14.4025V14.3716V14.3345H11.1678H11.1554C11.1718 14.3294 11.1891 14.3285 11.2059 14.3316C11.2087 14.3225 11.2083 14.3126 11.2049 14.3035H11.2482C11.2614 14.3115 11.2727 14.3223 11.2812 14.3351C11.2898 14.348 11.2954 14.3625 11.2977 14.3778H11.3286C11.3275 14.3887 11.3242 14.3993 11.3189 14.4088C11.3151 14.4157 11.3104 14.4219 11.3048 14.4273H11.3163C11.3163 14.4273 11.3163 14.4644 11.3472 14.4273C11.3528 14.4306 11.3592 14.4323 11.3658 14.4323C11.3687 14.4323 11.3717 14.4319 11.3745 14.4312C11.3784 14.4219 11.3817 14.4123 11.3843 14.4025V14.3778C11.3887 14.3864 11.3909 14.396 11.3909 14.4056C11.3909 14.4134 11.3895 14.4212 11.3866 14.4284C11.3991 14.4344 11.4117 14.4402 11.4243 14.4459H11.5576H11.5885V14.4087C11.6109 14.4036 11.634 14.4028 11.6566 14.4063V14.384L11.6527 14.3688C11.6458 14.3675 11.6388 14.3663 11.6318 14.3654L11.6256 14.3592C11.6345 14.3613 11.6432 14.3635 11.6519 14.3659L11.647 14.3469H11.5638V14.3159L11.6272 14.2698L11.6009 14.1674V14.1365C11.6022 14.1097 11.6022 14.0828 11.6009 14.056C11.5728 14.0655 11.5424 14.0655 11.5143 14.056C11.5041 14.0494 11.4958 14.0402 11.4904 14.0293C11.4849 14.0184 11.4825 14.0063 11.4833 13.9942C11.4897 13.9262 11.4897 13.8579 11.4833 13.79C11.5044 13.8138 11.5155 13.8448 11.5143 13.8766C11.5176 13.9054 11.5176 13.9344 11.5143 13.9632C11.5205 14.0065 11.539 14.0065 11.5761 14.0065H11.5761C11.5696 13.9823 11.5592 13.9593 11.5452 13.9385C11.5482 13.9138 11.5482 13.8889 11.5452 13.8642V13.7961C11.5579 13.8289 11.5745 13.8601 11.5947 13.889V13.9261C11.5886 13.9526 11.5886 13.9801 11.5947 14.0065C11.6048 14.0094 11.6155 14.0094 11.6256 14.0065C11.6318 13.9885 11.6318 13.9689 11.6256 13.9508V13.8333C11.6195 13.759 11.6256 13.8333 11.6256 13.7961V13.8333C11.6318 13.9075 11.6875 13.957 11.6875 14.0251H11.6937H11.737C11.734 14.0559 11.734 14.087 11.737 14.1179C11.7398 14.1343 11.7398 14.151 11.737 14.1674L11.669 14.2169V14.2788V14.3469H11.6569C11.6585 14.354 11.6598 14.3612 11.6608 14.3684C11.6744 14.3724 11.6879 14.3769 11.7012 14.3818C11.7134 14.386 11.7253 14.3909 11.737 14.3963C11.7252 14.3911 11.7133 14.3863 11.7012 14.3818C11.6881 14.3773 11.6747 14.3735 11.6611 14.3706C11.6622 14.3791 11.6628 14.3876 11.6628 14.3963C11.6722 14.4098 11.685 14.4204 11.6999 14.4273H11.7494H11.7803C11.7992 14.4406 11.8124 14.4604 11.8175 14.483H11.836V14.4706C11.8366 14.4747 11.837 14.4788 11.8374 14.483H11.8546C11.8713 14.486 11.8879 14.4893 11.9044 14.4929L11.9103 14.452C11.9245 14.4554 11.9394 14.4554 11.9536 14.452C11.9409 14.4687 11.9251 14.4827 11.9072 14.4935C11.9212 14.4966 11.9351 14.4999 11.949 14.5034C11.9487 14.4944 11.9503 14.4853 11.9536 14.4768C11.9613 14.473 11.9698 14.471 11.9784 14.471C11.9869 14.471 11.9954 14.473 12.0031 14.4768C12.0054 14.4753 12.0078 14.4739 12.0103 14.4727C12.01 14.4699 12.0097 14.4672 12.0093 14.4644C12.0114 14.4571 12.0136 14.4496 12.016 14.442C12.0093 14.4446 12.0029 14.4479 11.9969 14.452H11.966L12.0217 14.4211H12.0225C12.0263 14.4089 12.0303 14.3965 12.0344 14.384H12.0093C12.0175 14.3542 12.0323 14.3267 12.0526 14.3035C12.0559 14.2971 12.0594 14.2908 12.0631 14.2847C12.0676 14.266 12.0713 14.2473 12.0738 14.229L12.0402 14.2726C12.0061 14.3332 11.9645 14.3893 11.9165 14.4397C11.9165 14.4397 11.867 14.4706 11.8608 14.4397L11.8979 14.4025V14.3716H11.8608H11.8608C11.8236 14.3716 11.8051 14.3716 11.8051 14.3097V14.2478C11.8118 14.2294 11.825 14.2139 11.8422 14.2045L11.9103 14.155L11.9598 14.1179L12.0835 14.0498H12.0988L12.1005 14.0485C12.0994 14.045 12.0988 14.0412 12.0988 14.0375C12.0988 14.0283 12.1022 14.0195 12.1083 14.0127V13.9756C12.1063 13.9612 12.1063 13.9466 12.1083 13.9323C12.103 13.9141 12.103 13.8948 12.1083 13.8766C12.1191 13.852 12.1362 13.8307 12.1578 13.8147C12.1939 13.7941 12.234 13.7814 12.2753 13.7776C12.2973 13.7774 12.319 13.7817 12.3393 13.7902C12.3595 13.7987 12.3777 13.8113 12.3929 13.8271C12.4043 13.8382 12.413 13.8518 12.4184 13.8668C12.4237 13.8818 12.4256 13.8979 12.4239 13.9137V13.9756V14.0189V14.0498V14.087V14.1179C12.4277 14.1245 12.4297 14.1319 12.4297 14.1396C12.4297 14.1472 12.4277 14.1546 12.4239 14.1612V14.1983C12.4349 14.1996 12.4452 14.2046 12.453 14.2125C12.4609 14.2204 12.4659 14.2306 12.4672 14.2417V14.2726C12.4981 14.3097 12.4981 14.353 12.4981 14.3963C12.4946 14.4355 12.4946 14.4748 12.4981 14.5139V14.551V14.5944C12.4951 14.619 12.4951 14.6439 12.4981 14.6686V14.7181V14.7676C12.5066 14.7971 12.517 14.826 12.529 14.8542C12.5299 14.858 12.5308 14.8617 12.5317 14.8654C12.535 14.8658 12.5382 14.8662 12.5414 14.8666H12.5321C12.5342 14.8746 12.5366 14.8828 12.5391 14.891C12.5612 14.8984 12.5823 14.9086 12.6019 14.9214L12.5971 14.9037H12.6033H12.6281H12.6342H12.6343C12.6652 14.9037 12.6775 14.9037 12.6775 14.8542V14.9037H12.659H12.6343H12.6342H12.6281V14.9347C12.6308 14.9405 12.6322 14.9468 12.6322 14.9532C12.6322 14.9597 12.6308 14.966 12.6281 14.9718H12.6157L12.602 14.9217L12.5399 14.8935C12.5399 14.8936 12.54 14.8937 12.54 14.8937C12.5624 14.905 12.5837 14.9188 12.6033 14.9347C12.5837 14.923 12.5635 14.9123 12.5428 14.9026C12.5564 14.9448 12.5724 14.9892 12.5724 15.0337V15.0563C12.5827 15.0559 12.5931 15.0546 12.6033 15.0522H12.6219V15.0832C12.6188 15.085 12.6154 15.0863 12.612 15.0871L12.6625 15.1079H12.6652C12.6874 15.1016 12.711 15.1016 12.7333 15.1079C12.7336 15.11 12.734 15.1121 12.7343 15.1141H12.7889H12.8261V15.1079L12.8137 15.1018H12.7642C12.7921 15.097 12.8179 15.0841 12.8384 15.0646L12.8137 15.1018H12.8312C12.8354 15.0967 12.8431 15.0875 12.857 15.0708V15.0605C12.8521 15.0425 12.8461 15.0248 12.8392 15.0076C12.8359 15.0069 12.8325 15.0065 12.8292 15.0065C12.8192 15.0065 12.8095 15.0095 12.8013 15.0151C12.8111 15.0066 12.8216 14.999 12.8328 14.9925C12.8306 14.9876 12.8284 14.9828 12.8261 14.978H12.7889C12.7947 14.9752 12.8011 14.9738 12.8075 14.9738C12.8139 14.9738 12.8203 14.9752 12.8261 14.978H12.8632C12.8527 14.982 12.8425 14.9868 12.8328 14.9925C12.835 14.9975 12.8371 15.0025 12.8392 15.0076C12.8455 15.0089 12.8516 15.0114 12.857 15.0151V15.0605C12.8618 15.0781 12.8657 15.096 12.8685 15.1141H12.8879V15.1512C12.9 15.1837 12.9103 15.2167 12.9189 15.2503C12.9253 15.2871 12.9253 15.3248 12.9189 15.3616V15.6339C12.925 15.6645 12.925 15.6961 12.9189 15.7267V15.7824C12.9225 15.8049 12.9225 15.8279 12.9189 15.8505C12.9122 15.8672 12.9016 15.8821 12.8879 15.8938L13.0173 15.9557H13.0426C13.0494 15.9524 13.0568 15.9507 13.0643 15.9507C13.0718 15.9507 13.0792 15.9524 13.0859 15.9557H13.1788H13.2221C13.2252 15.9541 13.2281 15.9523 13.2309 15.9503L13.1911 15.8195C13.2083 15.822 13.2242 15.83 13.2365 15.8422C13.2487 15.8545 13.2567 15.8704 13.2592 15.8876C13.2607 15.9014 13.2579 15.9153 13.2513 15.9274C13.2463 15.9365 13.2393 15.9444 13.2309 15.9503L13.2345 15.9618H13.0674H13.0302L13.0173 15.9557H13.0055H12.9684H12.9312H12.8694L12.9056 16.0281C12.9473 16.0395 12.9872 16.0567 13.0241 16.0794H13.0612H13.0983C13.1385 16.0794 13.1883 16.0794 13.2292 16.091C13.2586 16.0664 13.2283 16.0361 13.2283 16.0361C13.2654 16.0051 13.2654 16.0361 13.2654 16.0361L13.2692 16.1087C13.27 16.1092 13.2708 16.1098 13.2716 16.1104C13.3149 16.1413 13.2716 16.1103 13.2716 16.1536L13.2692 16.1087C13.2576 16.1009 13.244 16.0952 13.2292 16.091C13.2289 16.0913 13.2286 16.0915 13.2283 16.0918H13.1849V16.1289C13.1849 16.098 13.154 16.0918 13.1231 16.0856H12.9622H12.9343L12.9374 16.0918V16.1104C12.9407 16.1204 12.9407 16.1312 12.9374 16.1413V16.1104C12.9374 16.1104 12.9374 16.1475 12.9003 16.1475H12.8694C12.8637 16.1507 12.8573 16.1524 12.8508 16.1524C12.8443 16.1524 12.8379 16.1507 12.8322 16.1475C12.8255 16.1501 12.8184 16.1516 12.8113 16.152Z" fill="#231F20"/>
<path d="M11.1678 14.2973C11.1739 14.296 11.1802 14.2952 11.1864 14.2949C11.1893 14.2495 11.2727 14.2973 11.2606 14.2973H11.242C11.2268 14.2917 11.2104 14.2909 11.1948 14.2947C11.2023 14.2949 11.2099 14.2957 11.2173 14.2973H11.1863H11.1739H11.1678Z" fill="#231F20"/>
<path d="M11.1739 14.2231H11.1801L11.1739 14.1922V14.2231Z" fill="#231F20"/>
<path d="M11.4153 14.3778C11.4402 14.3546 11.4575 14.3244 11.4648 14.2912L11.4153 14.3778Z" fill="#231F20"/>
<path d="M11.8237 14.1426C11.8546 14.1117 11.8237 14.1117 11.8237 14.1117L11.7865 14.1426C11.7903 14.1526 11.7903 14.1636 11.7865 14.1736C11.7945 14.1712 11.8019 14.1672 11.8082 14.1619C11.8146 14.1566 11.8199 14.15 11.8237 14.1426Z" fill="#231F20"/>
<path d="M11.8608 14.0127C11.8578 13.9818 11.8578 13.9508 11.8608 13.9199V13.9075H11.8298C11.8195 13.9523 11.8195 13.9989 11.8298 14.0436H11.8608V14.0127Z" fill="#231F20"/>
<path d="M11.8608 13.6105V13.6476L11.8175 13.6724V13.7405C11.8085 13.7686 11.8085 13.7989 11.8175 13.8271C11.8261 13.8479 11.8387 13.8668 11.8546 13.8828H11.9165C11.927 13.8882 11.9387 13.891 11.9505 13.891C11.9623 13.891 11.974 13.8882 11.9845 13.8828C12.0072 13.8652 12.0257 13.8427 12.0386 13.817C12.0514 13.7913 12.0583 13.763 12.0588 13.7343C12.0622 13.7221 12.0622 13.7093 12.0588 13.6971C12.0559 13.6849 12.0559 13.6722 12.0588 13.66C12.0519 13.6333 12.0368 13.6095 12.0155 13.592C11.9953 13.5768 11.9721 13.5662 11.9474 13.561C11.9148 13.5698 11.885 13.5869 11.8608 13.6105Z" fill="#231F20"/>
<path d="M12.0835 13.9447V13.889L12.0774 13.9199H12.0155C11.9953 13.9257 11.9738 13.9257 11.9536 13.9199V13.9508V13.988C11.9493 14.0167 11.9493 14.0459 11.9536 14.0746C11.9949 14.0482 12.0384 14.0255 12.0835 14.0065C12.087 13.9881 12.087 13.9692 12.0835 13.9508V13.9447Z" fill="#231F20"/>
<path d="M11.0316 14.0003V13.9694V13.9261C11.0343 13.9404 11.0343 13.9551 11.0316 13.9694C11.0373 13.9854 11.0373 14.0029 11.0316 14.0189V14.0003Z" fill="#231F20"/>
<path d="M11.0007 13.9137V13.9013C10.9939 13.9046 10.9865 13.9063 10.979 13.9063C10.9715 13.9063 10.9641 13.9046 10.9574 13.9013V13.8642C10.9607 13.8396 10.9607 13.8146 10.9574 13.79C10.9476 13.8306 10.9476 13.873 10.9574 13.9137H11.0007Z" fill="#231F20"/>
<path d="M10.9667 13.7647L11.0007 13.8271L10.9945 13.8209C10.9779 13.8043 10.9702 13.7824 10.9667 13.7647L10.9636 13.759C10.9639 13.7565 10.9643 13.7539 10.9646 13.7514C10.9636 13.7426 10.9636 13.7362 10.9636 13.7343V13.6848C10.9668 13.7069 10.9672 13.7293 10.9646 13.7514C10.965 13.7554 10.9657 13.7599 10.9667 13.7647Z" fill="#231F20"/>
<path d="M12.3991 16.2093H12.4177H12.4424H12.4857C12.5101 16.203 12.5356 16.203 12.56 16.2093H12.5043H12.4857H12.4424C12.4157 16.2122 12.3887 16.2122 12.362 16.2093H12.3991Z" fill="#231F20"/>
<path fill-rule="evenodd" clip-rule="evenodd" d="M11.9969 2.63974L10.6604 12.6576L11.9969 11.946V2.63974Z" fill="#F58220"/>
<path fill-rule="evenodd" clip-rule="evenodd" d="M9.14438 14.0375L3.99622 12.3544L9.44139 15.4916L9.14438 14.0375Z" fill="#F58220"/>
<path fill-rule="evenodd" clip-rule="evenodd" d="M20.0038 12.3482L13.7975 13.0227L14.8556 14.0313L20.0038 12.3482Z" fill="#F58220"/>
<path fill-rule="evenodd" clip-rule="evenodd" d="M13.779 17.3726L17.0523 21.8092L14.3792 16.0608L13.779 17.3726Z" fill="#F58220"/>
<path fill-rule="evenodd" clip-rule="evenodd" d="M6.93538 21.8092L11.6999 17.5892L10.2087 17.3726L6.93538 21.8092Z" fill="#F58220"/>
<path fill-rule="evenodd" clip-rule="evenodd" d="M12.1825 17.484L13.6923 17.2675L14.3111 15.9062L12.1825 17.484Z" fill="#F58220"/>
<path fill-rule="evenodd" clip-rule="evenodd" d="M9.68271 15.9123L10.2891 17.2613L11.8113 17.484L9.68271 15.9123Z" fill="#F58220"/>
<path fill-rule="evenodd" clip-rule="evenodd" d="M10.3572 13.066L9.27432 14.0808L9.57752 15.5535L10.3572 13.066Z" fill="#F58220"/>
<path fill-rule="evenodd" clip-rule="evenodd" d="M13.6305 13.066L14.7133 14.0808L14.4101 15.5473L13.6305 13.066Z" fill="#F58220"/>
<path fill-rule="evenodd" clip-rule="evenodd" d="M13.3458 12.837L11.9969 12.1069L10.648 12.837H13.3458Z" fill="#F58220"/>
</g>
<defs>
<clipPath id="clip0_7_9175">
<rect width="18" height="21.6693" fill="white" transform="translate(3 1)"/>
</clipPath>
</defs>
</svg>
