<svg width="24" height="24" viewBox="0 0 24 24" fill="none" xmlns="http://www.w3.org/2000/svg">
<rect width="24" height="24" fill="white"/>
<g clip-path="url(#clip0_7_9170)">
<path d="M10.8227 19.1349L12.9307 16.3534L11.3467 16.1353L10.4551 17.2095C10.2607 17.4466 9.93822 17.3019 9.76986 17.1834L5.20288 13.9253C5.02978 13.802 5.17679 13.5862 5.35701 13.5578L9.93111 12.8037L10.4765 11.8718L3.33435 13.0574C3.06877 13.1025 2.8601 13.406 3.10908 13.6052L9.8078 19.1041C10.0449 19.2985 10.5524 19.5024 10.8227 19.1444" fill="#FFB600"/>
<path d="M15.2782 5.32959L20.7771 15.3457C21.3367 16.3677 20.7771 17.43 19.812 17.2972L13.4405 16.4222L14.0713 15.3457L18.6691 15.9385C19.1433 16.0049 19.0983 15.6753 18.9062 15.3077L15.0269 7.22184C14.9463 7.07482 14.6688 6.99657 14.5763 7.15781L10.282 14.4707C10.154 14.6865 10.1208 14.8311 10.3959 14.8691L12.2122 15.1062L11.3562 16.1377L9.04901 15.8199C8.61982 15.7606 8.43249 15.3741 8.68621 14.9402L14.2159 5.51929C14.4649 5.09721 14.9415 4.70122 15.2877 5.33197" fill="#019EEC"/>
<path d="M13.7274 15.3006L14.1732 14.7126L16.139 12.1042C16.5777 11.5256 16.4852 10.8735 15.9019 10.9708L12.4327 11.5399L11.9893 12.4551L13.8507 12.1493C14.2515 12.0829 14.325 12.5381 14.0191 12.9152L12.7576 14.4328L12.2122 15.092L10.7041 16.9083L11.9443 17.6553L13.7369 15.284" fill="#FFB500"/>
</g>
<defs>
<clipPath id="clip0_7_9170">
<rect width="18" height="14.3317" fill="white" transform="translate(3 5)"/>
</clipPath>
</defs>
</svg>
