<svg width="24" height="24" viewBox="0 0 24 24" fill="none" xmlns="http://www.w3.org/2000/svg">
<rect width="24" height="24" fill="white"/>
<g clip-path="url(#clip0_7_9235)">
<path fill-rule="evenodd" clip-rule="evenodd" d="M12.0017 6.81169H14.9115L20.0981 11.9983H19.4175L14.9251 7.50936H11.9949V6.81169H12.0017ZM12.0017 8.31934H14.9115L18.5871 11.9983H17.9064L14.9285 9.01701H11.9949V8.31934H12.0017ZM12.0017 17.1849H9.09189L3.90187 11.9983H4.58253L9.07147 16.4906H12.0051V17.1713L12.0017 17.1849ZM12.0017 15.6773H9.09189L5.41634 11.9983H6.097L9.07827 14.983H12.0085V15.6636L12.0017 15.6773ZM17.1951 11.9983V14.9115L12.0085 20.0981V19.4175L16.4974 14.9285V11.9949L17.1951 11.9983ZM15.6875 11.9983V14.9115L12.0085 18.5871V17.9064L14.9898 14.9251V11.9915L15.6875 11.9983ZM6.80828 11.9983V9.08849L11.9949 3.90187V4.58253L7.50595 9.07487V12.0051L6.80828 11.9983ZM8.31594 11.9983V9.08849L11.9949 5.41293V6.09359L9.01362 9.07147V12.0051L8.31594 11.9983ZM9.18378 11.9983L12.0085 9.17357L14.8298 11.9983L12.0085 14.8196L9.18378 11.9983ZM5.97447 9.02722L12.0017 3H14.9694V5.96767L21 12.0017V14.9694H18.0323L12.0017 21H9.03063V18.0323L3 12.0017V9.03063L5.97447 9.02722Z" fill="#C43236"/>
</g>
<defs>
<clipPath id="clip0_7_9235">
<rect width="18" height="18" fill="white" transform="translate(3 3)"/>
</clipPath>
</defs>
</svg>
