<svg width="24" height="24" viewBox="0 0 24 24" fill="none" xmlns="http://www.w3.org/2000/svg">
<rect width="24" height="24" fill="white"/>
<g clip-path="url(#clip0_7_9301)">
<path fill-rule="evenodd" clip-rule="evenodd" d="M20.9327 9.04223C20.2734 8.10381 19.3979 7.33786 18.3802 6.8091C17.3625 6.28034 16.2325 6.00429 15.0856 6.00429C13.9388 6.00429 12.8088 6.28034 11.7911 6.8091C10.7734 7.33786 9.8979 8.10381 9.23861 9.04223L9.16951 9.13968H10.8634L10.8811 9.12018C11.4208 8.54564 12.0724 8.08774 12.7958 7.77473C13.5193 7.46172 14.2992 7.30023 15.0874 7.30023C15.8757 7.30023 16.6556 7.46172 17.379 7.77473C18.1024 8.08774 18.7541 8.54564 19.2937 9.12018L19.3132 9.13968H21.0053L20.938 9.04223H20.9327Z" fill="#E31F2B"/>
<path d="M8.49267 15.3801L8.46077 15.4102C7.93986 15.9417 7.33743 16.2217 6.71907 16.2217C5.42386 16.2217 4.48302 15.2507 4.48302 13.9094C4.48302 12.5682 5.42386 11.6061 6.71907 11.6061C7.33743 11.6061 7.93986 11.8878 8.46077 12.4176L8.49267 12.4512L9.32543 11.4431L9.30239 11.4165C9.00066 11.0315 8.614 10.7215 8.17264 10.5106C7.73127 10.2998 7.24714 10.1938 6.75805 10.201C5.78917 10.1806 4.84805 10.5253 4.12156 11.1667C3.38803 11.8399 3 12.7896 3 13.9148C3 15.0399 3.38803 15.9931 4.12156 16.6664C4.84743 17.309 5.78882 17.6544 6.75805 17.6338C7.24726 17.6407 7.73144 17.5344 8.1728 17.3232C8.61415 17.1121 9.00075 16.8018 9.30239 16.4166L9.32543 16.3918L8.49267 15.3854V15.3801ZM10.167 17.4921H11.6359V10.3109H10.167V17.4921ZM17.3979 15.9222C17.0755 16.1369 16.7005 16.2595 16.3135 16.2766C15.8369 16.2766 15.6225 16.0268 15.6225 15.4686V11.6698H17.1215V10.3179H15.6225V8.08367L14.182 8.85441V10.3179H12.9417V11.6698H14.182V15.7238C14.182 16.8276 14.8358 17.5807 15.8121 17.6019C16.2703 17.6229 16.7245 17.5083 17.1179 17.2724L17.1321 17.2617L17.4865 15.8762L17.3996 15.9293L17.3979 15.9222ZM18.6169 17.485H20.0875V10.3109H18.6169V17.4921V17.485Z" fill="#034EA2"/>
</g>
<defs>
<clipPath id="clip0_7_9301">
<rect width="18" height="11.6285" fill="white" transform="translate(3 6)"/>
</clipPath>
</defs>
</svg>
