<svg width="24" height="24" viewBox="0 0 24 24" fill="none" xmlns="http://www.w3.org/2000/svg">
<rect width="24" height="24" fill="white"/>
<g clip-path="url(#clip0_7_9273)">
<path fill-rule="evenodd" clip-rule="evenodd" d="M13.4071 9.91993C13.4071 9.91993 18.4917 5.59668 18.4169 4.83535C18.4169 4.83535 19.0219 3.23792 17.1254 3.0136C17.1254 3.0136 16.7447 2.86404 15.3036 3.61858C15.3036 3.61858 12.1156 5.29078 9.30815 3.84969L7.78548 3.16993C7.52276 3.0539 7.23604 3.00261 6.94939 3.02039C6.72484 3.01531 6.50296 3.06982 6.30633 3.17838C6.1097 3.28693 5.94535 3.44565 5.82999 3.63837C5.71464 3.83108 5.65239 4.05093 5.64962 4.27552C5.64684 4.5001 5.70363 4.72141 5.81418 4.91692C5.73941 5.75302 10.824 10.0015 10.824 10.0015C11.1425 10.2244 11.5035 10.3795 11.8844 10.4569C12.1621 10.4951 12.4448 10.467 12.7095 10.3748C12.9741 10.2826 13.2132 10.1291 13.4071 9.92673V9.91993Z" fill="#ED1C2E"/>
<path fill-rule="evenodd" clip-rule="evenodd" d="M13.4071 14.0189C13.4071 14.0189 18.4917 18.3489 18.4169 19.1103C18.4169 19.1103 19.0219 20.7009 17.1254 20.932C17.1254 20.932 16.7447 21.0816 15.3036 20.3202C15.3036 20.3202 12.1156 18.6548 9.30815 20.0959L7.78548 20.7757C7.52366 20.8951 7.23666 20.9488 6.94939 20.932C6.72484 20.9371 6.50296 20.8826 6.30633 20.774C6.1097 20.6655 5.94535 20.5068 5.82999 20.314C5.71464 20.1213 5.65239 19.9015 5.64962 19.6769C5.64684 19.4523 5.70363 19.231 5.81418 19.0355C5.73941 18.1994 10.824 13.9441 10.824 13.9441C11.1425 13.7212 11.5035 13.5661 11.8844 13.4887C12.4419 13.4588 12.9888 13.6492 13.4071 14.0189Z" fill="#ED1C2E"/>
<path fill-rule="evenodd" clip-rule="evenodd" d="M9.91314 13.3391C9.91314 13.3391 5.66465 18.349 4.90332 18.349C4.69273 18.4271 4.46648 18.4537 4.2435 18.4266C4.02051 18.3994 3.80727 18.3193 3.6216 18.1928C3.43593 18.0664 3.28323 17.8973 3.17627 17.6998C3.06931 17.5023 3.0112 17.282 3.00679 17.0574C3.00679 17.0574 2.92523 16.6767 3.61179 15.2357C3.61179 15.2357 5.35876 11.9728 3.8429 9.16542L3.23112 7.64276C3.10541 7.38309 3.05367 7.0938 3.08157 6.80665C3.08633 6.58586 3.14703 6.36988 3.25801 6.17894C3.36898 5.988 3.52659 5.82833 3.71609 5.71491C3.90558 5.60148 4.12078 5.53801 4.3415 5.53041C4.56221 5.52281 4.78124 5.57132 4.97809 5.67145C5.73941 5.67145 9.98792 10.6813 9.98792 10.6813C10.2523 11.0042 10.4113 11.4004 10.4433 11.8165C10.4777 12.0939 10.4478 12.3756 10.3559 12.6397C10.2639 12.9037 10.1124 13.143 9.91314 13.3391Z" fill="#ED1C2E"/>
<path fill-rule="evenodd" clip-rule="evenodd" d="M14.0869 13.3391C14.0869 13.3391 18.3421 18.349 19.0967 18.349C19.3077 18.4269 19.5342 18.4533 19.7575 18.4261C19.9807 18.399 20.1943 18.3189 20.3804 18.1926C20.5666 18.0663 20.7198 17.8974 20.8276 17.7C20.9354 17.5026 20.9945 17.2823 21 17.0574C21 17.0574 21.0748 16.6767 20.3882 15.2357C20.3882 15.2357 18.7228 11.9728 20.1639 9.16541L20.7689 7.64276C20.8983 7.38421 20.9525 7.0945 20.9252 6.80665C20.7689 4.9849 19.0219 5.67145 19.0219 5.67145C18.2674 5.67145 14.0121 10.6813 14.0121 10.6813C13.7477 11.0042 13.5887 11.4004 13.5566 11.8165C13.5243 12.0938 13.5552 12.3749 13.647 12.6386C13.7389 12.9024 13.8892 13.1419 14.0869 13.3391Z" fill="#ED1C2E"/>
</g>
<defs>
<clipPath id="clip0_7_9273">
<rect width="18" height="17.9456" fill="white" transform="translate(3 3)"/>
</clipPath>
</defs>
</svg>
