<svg
      viewBox="0 0 281 290"
      fill="none"
      xmlns="http://www.w3.org/2000/svg"
    >
      <path
        d="M253.725 117.885C253.082 117.883 252.454 118.072 251.918 118.428C251.383 118.785 250.966 119.291 250.719 119.885C250.472 120.478 250.407 121.131 250.531 121.762C250.656 122.393 250.965 122.972 251.419 123.427C251.873 123.882 252.451 124.192 253.082 124.318C253.712 124.444 254.365 124.38 254.959 124.134C255.553 123.889 256.061 123.472 256.418 122.938C256.775 122.404 256.966 121.775 256.966 121.133C256.966 120.272 256.625 119.447 256.017 118.838C255.41 118.229 254.585 117.886 253.725 117.885Z"
        fill="#C6C1C0"
      />
      <path
        d="M226.451 121.425C226.129 121.423 225.814 121.517 225.546 121.695C225.278 121.872 225.069 122.126 224.945 122.422C224.821 122.719 224.788 123.046 224.85 123.361C224.912 123.677 225.066 123.967 225.292 124.195C225.519 124.422 225.809 124.578 226.124 124.641C226.439 124.704 226.766 124.672 227.063 124.55C227.36 124.427 227.615 124.219 227.793 123.952C227.972 123.684 228.067 123.37 228.067 123.049C228.067 122.619 227.897 122.207 227.594 121.903C227.291 121.598 226.88 121.426 226.451 121.425Z"
        fill="#C6C1C0"
      />
      <path
        d="M259.773 91.4931C259.451 91.4916 259.137 91.5857 258.869 91.7633C258.601 91.9409 258.391 92.194 258.267 92.4907C258.143 92.7873 258.11 93.1141 258.172 93.4296C258.234 93.7451 258.388 94.0351 258.615 94.263C258.842 94.4908 259.131 94.6462 259.446 94.7095C259.761 94.7727 260.088 94.741 260.386 94.6183C260.683 94.4955 260.937 94.2874 261.116 94.0202C261.294 93.7529 261.39 93.4386 261.39 93.1171C261.39 92.6876 261.22 92.2756 260.917 91.9713C260.614 91.6669 260.202 91.4949 259.773 91.4931Z"
        fill="#C6C1C0"
      />
      <path
        d="M279.383 118.775C279.061 118.773 278.746 118.867 278.478 119.045C278.21 119.223 278.001 119.477 277.877 119.774C277.753 120.071 277.72 120.398 277.783 120.714C277.845 121.03 278 121.32 278.228 121.547C278.455 121.775 278.745 121.93 279.061 121.992C279.377 122.054 279.704 122.022 280.001 121.898C280.298 121.774 280.551 121.565 280.729 121.297C280.907 121.028 281.002 120.713 281 120.392C280.998 119.963 280.827 119.553 280.524 119.25C280.222 118.948 279.811 118.777 279.383 118.775Z"
        fill="#C6C1C0"
      />
      <path
        d="M230.148 157.817C229.599 158.146 229.159 158.632 228.886 159.211C228.612 159.79 228.516 160.437 228.61 161.071C228.704 161.705 228.984 162.296 229.414 162.771C229.844 163.246 230.405 163.583 231.027 163.739C231.648 163.895 232.302 163.863 232.905 163.648C233.508 163.433 234.034 163.044 234.417 162.53C234.799 162.016 235.021 161.4 235.053 160.76C235.086 160.12 234.928 159.485 234.6 158.935C234.381 158.569 234.093 158.249 233.751 157.995C233.408 157.74 233.019 157.556 232.606 157.452C232.192 157.348 231.762 157.327 231.34 157.389C230.919 157.452 230.513 157.597 230.148 157.817Z"
        fill="#C6C1C0"
      />
      <path
        d="M215.325 136.796C215.051 136.961 214.832 137.204 214.696 137.493C214.56 137.782 214.512 138.105 214.56 138.421C214.607 138.737 214.747 139.032 214.962 139.268C215.177 139.505 215.457 139.673 215.767 139.75C216.077 139.828 216.403 139.811 216.704 139.704C217.005 139.596 217.267 139.402 217.457 139.145C217.648 138.889 217.758 138.581 217.774 138.262C217.79 137.943 217.711 137.626 217.547 137.352C217.325 136.984 216.967 136.72 216.55 136.616C216.134 136.511 215.693 136.576 215.325 136.796Z"
        fill="#C6C1C0"
      />
      <path
        d="M258.12 150.003C257.847 150.167 257.628 150.41 257.492 150.699C257.356 150.988 257.308 151.311 257.356 151.627C257.403 151.943 257.543 152.238 257.758 152.475C257.973 152.711 258.253 152.879 258.563 152.956C258.873 153.034 259.199 153.018 259.5 152.91C259.8 152.802 260.063 152.608 260.253 152.351C260.444 152.095 260.554 151.788 260.57 151.468C260.586 151.149 260.507 150.832 260.343 150.558C260.234 150.375 260.09 150.216 259.919 150.089C259.748 149.962 259.553 149.871 259.347 149.819C259.141 149.767 258.926 149.757 258.715 149.788C258.505 149.82 258.303 149.893 258.12 150.003Z"
        fill="#C6C1C0"
      />
      <path
        d="M244.8 180.839C244.524 181.003 244.303 181.246 244.165 181.537C244.027 181.827 243.978 182.152 244.025 182.47C244.072 182.789 244.212 183.086 244.428 183.324C244.644 183.562 244.926 183.731 245.238 183.809C245.55 183.887 245.878 183.871 246.181 183.762C246.483 183.653 246.747 183.457 246.938 183.199C247.129 182.94 247.239 182.63 247.254 182.309C247.269 181.988 247.188 181.67 247.022 181.394C246.801 181.027 246.442 180.762 246.026 180.658C245.609 180.554 245.169 180.619 244.8 180.839Z"
        fill="#C6C1C0"
      />
      <path
        d="M45.8362 127.914C45.287 128.244 44.8479 128.729 44.5742 129.308C44.3006 129.887 44.2047 130.535 44.2988 131.168C44.3928 131.802 44.6725 132.394 45.1026 132.868C45.5327 133.343 46.0938 133.68 46.7151 133.836C47.3364 133.992 47.99 133.96 48.5934 133.745C49.1968 133.53 49.7229 133.141 50.1052 132.627C50.4875 132.113 50.709 131.497 50.7415 130.857C50.7741 130.217 50.6164 129.582 50.2882 129.032C49.8457 128.294 49.1283 127.762 48.2936 127.552C47.4589 127.342 46.5751 127.472 45.8362 127.914Z"
        fill="#C6C1C0"
      />
      <path
        d="M31.0199 106.886C30.7434 107.05 30.5219 107.293 30.3833 107.583C30.2447 107.873 30.1953 108.197 30.2414 108.515C30.2874 108.834 30.4269 109.131 30.642 109.37C30.8572 109.609 31.1384 109.778 31.45 109.857C31.7617 109.936 32.0897 109.921 32.3926 109.813C32.6955 109.705 32.9597 109.51 33.1516 109.252C33.3435 108.994 33.4546 108.685 33.4707 108.364C33.4869 108.043 33.4074 107.725 33.2423 107.449C33.0204 107.082 32.6626 106.816 32.2466 106.711C31.8306 106.606 31.3899 106.669 31.0199 106.886Z"
        fill="#C6C1C0"
      />
      <path
        d="M73.809 120.092C73.5325 120.256 73.3109 120.499 73.1723 120.789C73.0338 121.079 72.9844 121.404 73.0304 121.722C73.0765 122.04 73.2159 122.337 73.4311 122.576C73.6463 122.815 73.9275 122.985 74.2391 123.063C74.5507 123.142 74.8788 123.127 75.1817 123.019C75.4846 122.912 75.7487 122.717 75.9406 122.459C76.1326 122.201 76.2436 121.892 76.2598 121.571C76.2759 121.25 76.1964 120.931 76.0314 120.655C75.8107 120.286 75.4529 120.02 75.0364 119.915C74.6198 119.809 74.1785 119.873 73.809 120.092Z"
        fill="#C6C1C0"
      />
      <path
        d="M60.4814 150.936C60.2087 151.102 59.9911 151.344 59.856 151.633C59.721 151.923 59.6745 152.245 59.7225 152.561C59.7704 152.876 59.9107 153.17 60.1256 153.406C60.3405 153.642 60.6204 153.809 60.9301 153.887C61.2397 153.964 61.5653 153.948 61.8658 153.84C62.1663 153.733 62.4282 153.539 62.6186 153.282C62.8091 153.026 62.9194 152.72 62.9359 152.401C62.9523 152.082 62.874 151.766 62.711 151.491C62.6011 151.308 62.4563 151.149 62.2848 151.022C62.1132 150.895 61.9184 150.803 61.7113 150.752C61.5043 150.7 61.2891 150.69 61.078 150.721C60.867 150.753 60.6643 150.826 60.4814 150.936Z"
        fill="#C6C1C0"
      />
      <path
        d="M15.6058 157.717C15.0566 158.047 14.6174 158.532 14.3438 159.111C14.0701 159.69 13.9743 160.338 14.0683 160.971C14.1624 161.605 14.4421 162.197 14.8721 162.671C15.3022 163.146 15.8633 163.483 16.4846 163.639C17.1059 163.795 17.7595 163.763 18.3629 163.548C18.9663 163.333 19.4924 162.944 19.8747 162.43C20.2571 161.916 20.4785 161.3 20.5111 160.66C20.5436 160.021 20.3859 159.385 20.0577 158.835C19.8393 158.469 19.5507 158.15 19.2086 157.895C18.8664 157.641 18.4774 157.456 18.0639 157.352C17.6503 157.248 17.2203 157.227 16.7985 157.29C16.3767 157.352 15.9714 157.497 15.6058 157.717Z"
        fill="#C6C1C0"
      />
      <path
        d="M0.782551 136.697C0.508829 136.861 0.290107 137.104 0.154001 137.393C0.0178947 137.682 -0.0294918 138.005 0.0178253 138.321C0.0651425 138.637 0.20504 138.932 0.419856 139.169C0.634671 139.405 0.91477 139.573 1.22479 139.65C1.5348 139.728 1.86083 139.712 2.1617 139.604C2.46258 139.496 2.72481 139.302 2.91528 139.045C3.10575 138.789 3.21593 138.481 3.23189 138.162C3.24785 137.843 3.16889 137.526 3.00497 137.252C2.8958 137.069 2.75163 136.91 2.58074 136.783C2.40985 136.656 2.2156 136.564 2.00912 136.513C1.80265 136.461 1.58801 136.451 1.37753 136.482C1.16705 136.514 0.964854 136.587 0.782551 136.697Z"
        fill="#C6C1C0"
      />
      <path
        d="M43.5781 149.903C43.3054 150.069 43.0878 150.311 42.9527 150.601C42.8177 150.89 42.7712 151.212 42.8192 151.528C42.8671 151.843 43.0074 152.138 43.2223 152.374C43.4372 152.61 43.7171 152.777 44.0267 152.854C44.3364 152.931 44.662 152.915 44.9625 152.807C45.263 152.7 45.5249 152.506 45.7153 152.25C45.9057 151.993 46.0161 151.687 46.0325 151.368C46.049 151.049 45.9707 150.733 45.8076 150.459C45.6985 150.275 45.554 150.115 45.3825 149.987C45.2111 149.86 45.016 149.768 44.8087 149.716C44.6014 149.664 44.3859 149.654 44.1747 149.686C43.9635 149.718 43.7607 149.792 43.5781 149.903Z"
        fill="#C6C1C0"
      />
      <path
        d="M30.2579 180.71C29.9818 180.875 29.7607 181.118 29.6228 181.409C29.4849 181.699 29.4363 182.024 29.4832 182.342C29.5301 182.66 29.6704 182.957 29.8863 183.196C30.1022 183.434 30.384 183.603 30.696 183.681C31.008 183.759 31.3361 183.743 31.6387 183.634C31.9414 183.525 32.205 183.329 32.3961 183.07C32.5872 182.812 32.6972 182.502 32.7122 182.181C32.7272 181.86 32.6465 181.541 32.4804 181.266C32.2585 180.899 31.9002 180.634 31.4838 180.53C31.0673 180.426 30.6266 180.491 30.2579 180.71Z"
        fill="#C6C1C0"
      />
      <path
        d="M88.996 12.3905C88.4196 12.6714 87.9394 13.117 87.6163 13.6709C87.2932 14.2248 87.1417 14.8621 87.1809 15.5021C87.2201 16.1422 87.4483 16.7562 87.8366 17.2665C88.2249 17.7768 88.7558 18.1605 89.3622 18.369C89.9687 18.5774 90.6233 18.6013 91.2433 18.4376C91.8633 18.2739 92.4208 17.9299 92.8452 17.4492C93.2697 16.9686 93.542 16.3728 93.6278 15.7373C93.7135 15.1018 93.6088 14.4552 93.3269 13.8792C92.948 13.1093 92.2799 12.5207 91.4685 12.2417C90.657 11.9628 89.7682 12.0163 88.996 12.3905Z"
        fill="#C6C1C0"
      />
      <path
        d="M113.378 0.160137C113.088 0.299784 112.847 0.52279 112.684 0.800607C112.522 1.07842 112.446 1.39841 112.466 1.71961C112.487 2.04081 112.602 2.3486 112.799 2.60359C112.995 2.85858 113.263 3.04916 113.569 3.15093C113.874 3.25271 114.203 3.26105 114.513 3.17489C114.823 3.08873 115.1 2.91199 115.309 2.66729C115.518 2.4226 115.65 2.12107 115.686 1.80133C115.723 1.48158 115.663 1.15815 115.515 0.872452C115.322 0.499146 114.99 0.215963 114.591 0.0829777C114.192 -0.0500071 113.757 -0.0223299 113.378 0.160137Z"
        fill="#C6C1C0"
      />
      <path
        d="M96.5528 34.5933C96.1808 34.7883 95.8988 35.1198 95.766 35.5182C95.6331 35.9167 95.6599 36.3511 95.8405 36.7302C95.9798 37.0226 96.2033 37.2667 96.4823 37.4311C96.7613 37.5955 97.0831 37.6727 97.4064 37.6528C97.7296 37.6329 98.0395 37.5169 98.2963 37.3195C98.5531 37.1222 98.745 36.8526 98.8474 36.5454C98.9498 36.2381 98.9581 35.9073 98.871 35.5954C98.784 35.2834 98.6057 35.0046 98.359 34.7948C98.1124 34.5849 97.8086 34.4536 97.4867 34.4177C97.1649 34.3818 96.8396 34.443 96.5528 34.5933Z"
        fill="#C6C1C0"
      />
      <path
        d="M66.9704 25.7607C66.6826 25.9048 66.4441 26.1311 66.2852 26.4109C66.1262 26.6908 66.054 27.0115 66.0776 27.3325C66.1013 27.6535 66.2198 27.9602 66.4181 28.2137C66.6164 28.4672 66.8855 28.656 67.1913 28.7563C67.4972 28.8566 67.8259 28.8637 68.1358 28.7768C68.4457 28.69 68.7228 28.513 68.9319 28.2683C69.141 28.0237 69.2727 27.7224 69.3103 27.4028C69.3479 27.0831 69.2897 26.7595 69.143 26.473C68.9479 26.0919 68.6102 25.8032 68.2033 25.6698C67.7964 25.5364 67.3533 25.5691 66.9704 25.7607Z"
        fill="#C6C1C0"
      />
      <path
        d="M235.505 53.7831C234.946 53.4678 234.307 53.3252 233.667 53.3734C233.028 53.4217 232.417 53.6586 231.912 54.0542C231.407 54.4497 231.031 54.9862 230.831 55.5956C230.631 56.205 230.617 56.86 230.79 57.4777C230.962 58.0953 231.314 58.6479 231.801 59.0654C232.288 59.4829 232.888 59.7467 233.524 59.8232C234.161 59.8997 234.806 59.7856 235.378 59.4953C235.95 59.205 236.423 58.7515 236.737 58.1923C237.155 57.4436 237.26 56.5597 237.03 55.7337C236.799 54.9077 236.25 54.2064 235.505 53.7831Z"
        fill="#C6C1C0"
      />
      <path
        d="M210.017 43.4546C209.739 43.2979 209.42 43.2271 209.102 43.2514C208.783 43.2756 208.479 43.3936 208.227 43.5906C207.976 43.7876 207.788 44.0547 207.688 44.3582C207.589 44.6617 207.581 44.988 207.666 45.2959C207.752 45.6038 207.926 45.8795 208.168 46.0881C208.41 46.2968 208.709 46.4291 209.026 46.4684C209.343 46.5076 209.664 46.452 209.95 46.3087C210.236 46.1653 210.472 45.9405 210.63 45.6628C210.736 45.4779 210.805 45.2738 210.831 45.0623C210.858 44.8507 210.842 44.636 210.785 44.4306C210.728 44.2252 210.631 44.0331 210.499 43.8656C210.368 43.698 210.204 43.5583 210.017 43.4546Z"
        fill="#C6C1C0"
      />
      <path
        d="M247.92 37.7916C247.641 37.6349 247.323 37.5642 247.004 37.5884C246.686 37.6126 246.381 37.7307 246.13 37.9277C245.878 38.1247 245.691 38.3918 245.591 38.6953C245.491 38.9988 245.483 39.3251 245.569 39.6329C245.654 39.9408 245.829 40.2165 246.071 40.4252C246.313 40.6338 246.611 40.7662 246.928 40.8054C247.245 40.8447 247.567 40.7891 247.852 40.6457C248.138 40.5023 248.375 40.2776 248.532 39.9998C248.639 39.8149 248.707 39.6108 248.734 39.3993C248.76 39.1878 248.745 38.9731 248.688 38.7676C248.631 38.5622 248.533 38.3702 248.402 38.2026C248.27 38.0351 248.106 37.8953 247.92 37.7916Z"
        fill="#C6C1C0"
      />
      <path
        d="M255.813 69.9956C256.092 70.1545 256.413 70.2269 256.733 70.2036C257.054 70.1803 257.361 70.0623 257.614 69.8646C257.868 69.6669 258.057 69.3984 258.158 69.0931C258.259 68.7878 258.267 68.4595 258.181 68.1496C258.095 67.8398 257.919 67.5625 257.675 67.3528C257.431 67.143 257.131 67.0104 256.812 66.9716C256.492 66.9328 256.169 66.9896 255.882 67.1348C255.595 67.2801 255.358 67.5072 255.2 67.7874C254.992 68.1621 254.939 68.6039 255.054 69.0172C255.168 69.4305 255.441 69.7819 255.813 69.9956Z"
        fill="#C6C1C0"
      />
      <g opacity="0.3">
        <path
          d="M253.725 117.885C253.082 117.883 252.454 118.072 251.918 118.428C251.383 118.785 250.966 119.291 250.719 119.885C250.472 120.478 250.407 121.131 250.531 121.762C250.656 122.393 250.965 122.972 251.419 123.427C251.873 123.882 252.451 124.192 253.082 124.318C253.712 124.444 254.365 124.38 254.959 124.134C255.553 123.889 256.061 123.472 256.418 122.938C256.775 122.404 256.966 121.775 256.966 121.133C256.966 120.272 256.625 119.447 256.017 118.838C255.41 118.229 254.585 117.886 253.725 117.885Z"
          fill="white"
        />
        <path
          d="M226.451 121.425C226.129 121.423 225.814 121.517 225.546 121.695C225.278 121.872 225.069 122.126 224.945 122.422C224.821 122.719 224.788 123.046 224.85 123.361C224.912 123.677 225.066 123.967 225.292 124.195C225.519 124.422 225.809 124.578 226.124 124.641C226.439 124.704 226.766 124.672 227.063 124.55C227.36 124.427 227.615 124.219 227.793 123.952C227.972 123.684 228.067 123.37 228.067 123.049C228.067 122.619 227.897 122.207 227.594 121.903C227.291 121.598 226.88 121.426 226.451 121.425Z"
          fill="white"
        />
        <path
          d="M259.773 91.4931C259.451 91.4916 259.137 91.5857 258.869 91.7633C258.601 91.9409 258.391 92.194 258.267 92.4907C258.143 92.7873 258.11 93.1141 258.172 93.4296C258.234 93.7451 258.388 94.0351 258.615 94.263C258.842 94.4908 259.131 94.6462 259.446 94.7095C259.761 94.7727 260.088 94.741 260.386 94.6183C260.683 94.4955 260.937 94.2874 261.116 94.0202C261.294 93.7529 261.39 93.4386 261.39 93.1171C261.39 92.6876 261.22 92.2756 260.917 91.9713C260.614 91.6669 260.202 91.4949 259.773 91.4931Z"
          fill="white"
        />
        <path
          d="M279.383 118.775C279.061 118.773 278.746 118.867 278.478 119.045C278.21 119.223 278.001 119.477 277.877 119.774C277.753 120.071 277.72 120.398 277.783 120.714C277.845 121.03 278 121.32 278.228 121.547C278.455 121.775 278.745 121.93 279.061 121.992C279.377 122.054 279.704 122.022 280.001 121.898C280.298 121.774 280.551 121.565 280.729 121.297C280.907 121.028 281.002 120.713 281 120.392C280.998 119.963 280.827 119.553 280.524 119.25C280.222 118.948 279.811 118.777 279.383 118.775Z"
          fill="white"
        />
        <path
          d="M230.148 157.817C229.599 158.146 229.159 158.632 228.886 159.211C228.612 159.79 228.516 160.437 228.61 161.071C228.704 161.705 228.984 162.296 229.414 162.771C229.844 163.246 230.405 163.583 231.027 163.739C231.648 163.895 232.302 163.863 232.905 163.648C233.508 163.433 234.034 163.044 234.417 162.53C234.799 162.016 235.021 161.4 235.053 160.76C235.086 160.12 234.928 159.485 234.6 158.935C234.381 158.569 234.093 158.249 233.751 157.995C233.408 157.74 233.019 157.556 232.606 157.452C232.192 157.348 231.762 157.327 231.34 157.389C230.919 157.452 230.513 157.597 230.148 157.817Z"
          fill="white"
        />
        <path
          d="M215.325 136.796C215.051 136.961 214.832 137.204 214.696 137.493C214.56 137.782 214.512 138.105 214.56 138.421C214.607 138.737 214.747 139.032 214.962 139.268C215.177 139.505 215.457 139.673 215.767 139.75C216.077 139.828 216.403 139.811 216.704 139.704C217.005 139.596 217.267 139.402 217.457 139.145C217.648 138.889 217.758 138.581 217.774 138.262C217.79 137.943 217.711 137.626 217.547 137.352C217.325 136.984 216.967 136.72 216.55 136.616C216.134 136.511 215.693 136.576 215.325 136.796Z"
          fill="white"
        />
        <path
          d="M258.12 150.003C257.847 150.167 257.628 150.41 257.492 150.699C257.356 150.988 257.308 151.311 257.356 151.627C257.403 151.943 257.543 152.238 257.758 152.475C257.973 152.711 258.253 152.879 258.563 152.956C258.873 153.034 259.199 153.018 259.5 152.91C259.8 152.802 260.063 152.608 260.253 152.351C260.444 152.095 260.554 151.788 260.57 151.468C260.586 151.149 260.507 150.832 260.343 150.558C260.234 150.375 260.09 150.216 259.919 150.089C259.748 149.962 259.553 149.871 259.347 149.819C259.141 149.767 258.926 149.757 258.715 149.788C258.505 149.82 258.303 149.893 258.12 150.003Z"
          fill="white"
        />
        <path
          d="M244.8 180.839C244.524 181.003 244.303 181.246 244.165 181.537C244.027 181.827 243.978 182.152 244.025 182.47C244.072 182.789 244.212 183.086 244.428 183.324C244.644 183.562 244.926 183.731 245.238 183.809C245.55 183.887 245.878 183.871 246.181 183.762C246.483 183.653 246.747 183.457 246.938 183.199C247.129 182.94 247.239 182.63 247.254 182.309C247.269 181.988 247.188 181.67 247.022 181.394C246.801 181.027 246.442 180.762 246.026 180.658C245.609 180.554 245.169 180.619 244.8 180.839Z"
          fill="white"
        />
        <path
          d="M45.8362 127.914C45.287 128.244 44.8479 128.729 44.5742 129.308C44.3006 129.887 44.2047 130.535 44.2988 131.168C44.3928 131.802 44.6725 132.394 45.1026 132.868C45.5327 133.343 46.0938 133.68 46.7151 133.836C47.3364 133.992 47.99 133.96 48.5934 133.745C49.1968 133.53 49.7229 133.141 50.1052 132.627C50.4875 132.113 50.709 131.497 50.7415 130.857C50.7741 130.217 50.6164 129.582 50.2882 129.032C49.8457 128.294 49.1283 127.762 48.2936 127.552C47.4589 127.342 46.5751 127.472 45.8362 127.914Z"
          fill="white"
        />
        <path
          d="M31.0199 106.886C30.7434 107.05 30.5219 107.293 30.3833 107.583C30.2447 107.873 30.1953 108.197 30.2414 108.515C30.2874 108.834 30.4269 109.131 30.642 109.37C30.8572 109.609 31.1384 109.778 31.45 109.857C31.7617 109.936 32.0897 109.921 32.3926 109.813C32.6955 109.705 32.9597 109.51 33.1516 109.252C33.3435 108.994 33.4546 108.685 33.4707 108.364C33.4869 108.043 33.4074 107.725 33.2423 107.449C33.0204 107.082 32.6626 106.816 32.2466 106.711C31.8306 106.606 31.3899 106.669 31.0199 106.886Z"
          fill="white"
        />
        <path
          d="M73.809 120.092C73.5325 120.256 73.3109 120.499 73.1723 120.789C73.0338 121.079 72.9844 121.404 73.0304 121.722C73.0765 122.04 73.2159 122.337 73.4311 122.576C73.6463 122.815 73.9275 122.985 74.2391 123.063C74.5507 123.142 74.8788 123.127 75.1817 123.019C75.4846 122.912 75.7487 122.717 75.9406 122.459C76.1326 122.201 76.2436 121.892 76.2598 121.571C76.2759 121.25 76.1964 120.931 76.0314 120.655C75.8107 120.286 75.4529 120.02 75.0364 119.915C74.6198 119.809 74.1785 119.873 73.809 120.092Z"
          fill="white"
        />
        <path
          d="M60.4814 150.936C60.2087 151.102 59.9911 151.344 59.856 151.633C59.721 151.923 59.6745 152.245 59.7225 152.561C59.7704 152.876 59.9107 153.17 60.1256 153.406C60.3405 153.642 60.6204 153.809 60.9301 153.887C61.2397 153.964 61.5653 153.948 61.8658 153.84C62.1663 153.733 62.4282 153.539 62.6186 153.282C62.8091 153.026 62.9194 152.72 62.9359 152.401C62.9523 152.082 62.874 151.766 62.711 151.491C62.6011 151.308 62.4563 151.149 62.2848 151.022C62.1132 150.895 61.9184 150.803 61.7113 150.752C61.5043 150.7 61.2891 150.69 61.078 150.721C60.867 150.753 60.6643 150.826 60.4814 150.936Z"
          fill="white"
        />
        <path
          d="M15.6058 157.717C15.0566 158.047 14.6174 158.532 14.3438 159.111C14.0701 159.69 13.9743 160.338 14.0683 160.971C14.1624 161.605 14.4421 162.197 14.8721 162.671C15.3022 163.146 15.8633 163.483 16.4846 163.639C17.1059 163.795 17.7595 163.763 18.3629 163.548C18.9663 163.333 19.4924 162.944 19.8747 162.43C20.2571 161.916 20.4785 161.3 20.5111 160.66C20.5436 160.021 20.3859 159.385 20.0577 158.835C19.8393 158.469 19.5507 158.15 19.2086 157.895C18.8664 157.641 18.4774 157.456 18.0639 157.352C17.6503 157.248 17.2203 157.227 16.7985 157.29C16.3767 157.352 15.9714 157.497 15.6058 157.717Z"
          fill="white"
        />
        <path
          d="M0.782551 136.697C0.508829 136.861 0.290107 137.104 0.154001 137.393C0.0178947 137.682 -0.0294918 138.005 0.0178253 138.321C0.0651425 138.637 0.20504 138.932 0.419856 139.169C0.634671 139.405 0.91477 139.573 1.22479 139.65C1.5348 139.728 1.86083 139.712 2.1617 139.604C2.46258 139.496 2.72481 139.302 2.91528 139.045C3.10575 138.789 3.21593 138.481 3.23189 138.162C3.24785 137.843 3.16889 137.526 3.00497 137.252C2.8958 137.069 2.75163 136.91 2.58074 136.783C2.40985 136.656 2.2156 136.564 2.00912 136.513C1.80265 136.461 1.58801 136.451 1.37753 136.482C1.16705 136.514 0.964854 136.587 0.782551 136.697Z"
          fill="white"
        />
        <path
          d="M43.5781 149.903C43.3054 150.069 43.0878 150.311 42.9527 150.601C42.8177 150.89 42.7712 151.212 42.8192 151.528C42.8671 151.843 43.0074 152.138 43.2223 152.374C43.4372 152.61 43.7171 152.777 44.0267 152.854C44.3364 152.931 44.662 152.915 44.9625 152.807C45.263 152.7 45.5249 152.506 45.7153 152.25C45.9057 151.993 46.0161 151.687 46.0325 151.368C46.049 151.049 45.9707 150.733 45.8076 150.459C45.6985 150.275 45.554 150.115 45.3825 149.987C45.2111 149.86 45.016 149.768 44.8087 149.716C44.6014 149.664 44.3859 149.654 44.1747 149.686C43.9635 149.718 43.7607 149.792 43.5781 149.903Z"
          fill="white"
        />
        <path
          d="M30.2579 180.71C29.9818 180.875 29.7607 181.118 29.6228 181.409C29.4849 181.699 29.4363 182.024 29.4832 182.342C29.5301 182.66 29.6704 182.957 29.8863 183.196C30.1022 183.434 30.384 183.603 30.696 183.681C31.008 183.759 31.3361 183.743 31.6387 183.634C31.9414 183.525 32.205 183.329 32.3961 183.07C32.5872 182.812 32.6972 182.502 32.7122 182.181C32.7272 181.86 32.6465 181.541 32.4804 181.266C32.2585 180.899 31.9002 180.634 31.4838 180.53C31.0673 180.426 30.6266 180.491 30.2579 180.71Z"
          fill="white"
        />
        <path
          d="M88.996 12.3905C88.4196 12.6714 87.9394 13.117 87.6163 13.6709C87.2932 14.2248 87.1417 14.8621 87.1809 15.5021C87.2201 16.1422 87.4483 16.7562 87.8366 17.2665C88.2249 17.7768 88.7558 18.1605 89.3622 18.369C89.9687 18.5774 90.6233 18.6013 91.2433 18.4376C91.8633 18.2739 92.4208 17.9299 92.8452 17.4492C93.2697 16.9686 93.542 16.3728 93.6278 15.7373C93.7135 15.1018 93.6088 14.4552 93.3269 13.8792C92.948 13.1093 92.2799 12.5207 91.4685 12.2417C90.657 11.9628 89.7682 12.0163 88.996 12.3905Z"
          fill="white"
        />
        <path
          d="M113.378 0.160137C113.088 0.299784 112.847 0.52279 112.684 0.800607C112.522 1.07842 112.446 1.39841 112.466 1.71961C112.487 2.04081 112.602 2.3486 112.799 2.60359C112.995 2.85858 113.263 3.04916 113.569 3.15093C113.874 3.25271 114.203 3.26105 114.513 3.17489C114.823 3.08873 115.1 2.91199 115.309 2.66729C115.518 2.4226 115.65 2.12107 115.686 1.80133C115.723 1.48158 115.663 1.15815 115.515 0.872452C115.322 0.499146 114.99 0.215963 114.591 0.0829777C114.192 -0.0500071 113.757 -0.0223299 113.378 0.160137Z"
          fill="white"
        />
        <path
          d="M96.5528 34.5933C96.1808 34.7883 95.8988 35.1198 95.766 35.5182C95.6331 35.9167 95.6599 36.3511 95.8405 36.7302C95.9798 37.0226 96.2033 37.2667 96.4823 37.4311C96.7613 37.5955 97.0831 37.6727 97.4064 37.6528C97.7296 37.6329 98.0395 37.5169 98.2963 37.3195C98.5531 37.1222 98.745 36.8526 98.8474 36.5454C98.9498 36.2381 98.9581 35.9073 98.871 35.5954C98.784 35.2834 98.6057 35.0046 98.359 34.7948C98.1124 34.5849 97.8086 34.4536 97.4867 34.4177C97.1649 34.3818 96.8396 34.443 96.5528 34.5933Z"
          fill="white"
        />
        <path
          d="M66.9704 25.7607C66.6826 25.9048 66.4441 26.1311 66.2852 26.4109C66.1262 26.6908 66.054 27.0115 66.0776 27.3325C66.1013 27.6535 66.2198 27.9602 66.4181 28.2137C66.6164 28.4672 66.8855 28.656 67.1913 28.7563C67.4972 28.8566 67.8259 28.8637 68.1358 28.7768C68.4457 28.69 68.7228 28.513 68.9319 28.2683C69.141 28.0237 69.2727 27.7224 69.3103 27.4028C69.3479 27.0831 69.2897 26.7595 69.143 26.473C68.9479 26.0919 68.6102 25.8032 68.2033 25.6698C67.7964 25.5364 67.3533 25.5691 66.9704 25.7607Z"
          fill="white"
        />
        <path
          d="M235.505 53.7831C234.946 53.4678 234.307 53.3252 233.667 53.3734C233.028 53.4217 232.417 53.6586 231.912 54.0542C231.407 54.4497 231.031 54.9862 230.831 55.5956C230.631 56.205 230.617 56.86 230.79 57.4777C230.962 58.0953 231.314 58.6479 231.801 59.0654C232.288 59.4829 232.888 59.7467 233.524 59.8232C234.161 59.8997 234.806 59.7856 235.378 59.4953C235.95 59.205 236.423 58.7515 236.737 58.1923C237.155 57.4436 237.26 56.5597 237.03 55.7337C236.799 54.9077 236.25 54.2064 235.505 53.7831Z"
          fill="white"
        />
        <path
          d="M210.017 43.4546C209.739 43.2979 209.42 43.2271 209.102 43.2514C208.783 43.2756 208.479 43.3936 208.227 43.5906C207.976 43.7876 207.788 44.0547 207.688 44.3582C207.589 44.6617 207.581 44.988 207.666 45.2959C207.752 45.6038 207.926 45.8795 208.168 46.0881C208.41 46.2968 208.709 46.4291 209.026 46.4684C209.343 46.5076 209.664 46.452 209.95 46.3087C210.236 46.1653 210.472 45.9405 210.63 45.6628C210.736 45.4779 210.805 45.2738 210.831 45.0623C210.858 44.8507 210.842 44.636 210.785 44.4306C210.728 44.2252 210.631 44.0331 210.499 43.8656C210.368 43.698 210.204 43.5583 210.017 43.4546Z"
          fill="white"
        />
        <path
          d="M247.92 37.7916C247.641 37.6349 247.323 37.5642 247.004 37.5884C246.686 37.6126 246.381 37.7307 246.13 37.9277C245.878 38.1247 245.691 38.3918 245.591 38.6953C245.491 38.9988 245.483 39.3251 245.569 39.6329C245.654 39.9408 245.829 40.2165 246.071 40.4252C246.313 40.6338 246.611 40.7662 246.928 40.8054C247.245 40.8447 247.567 40.7891 247.852 40.6457C248.138 40.5023 248.375 40.2776 248.532 39.9998C248.639 39.8149 248.707 39.6108 248.734 39.3993C248.76 39.1878 248.745 38.9731 248.688 38.7676C248.631 38.5622 248.533 38.3702 248.402 38.2026C248.27 38.0351 248.106 37.8953 247.92 37.7916Z"
          fill="white"
        />
        <path
          d="M255.813 69.9956C256.092 70.1545 256.413 70.2269 256.733 70.2036C257.054 70.1803 257.361 70.0623 257.614 69.8646C257.868 69.6669 258.057 69.3984 258.158 69.0931C258.259 68.7878 258.267 68.4595 258.181 68.1496C258.095 67.8398 257.919 67.5625 257.675 67.3528C257.431 67.143 257.131 67.0104 256.812 66.9716C256.492 66.9328 256.169 66.9896 255.882 67.1348C255.595 67.2801 255.358 67.5072 255.2 67.7874C254.992 68.1621 254.939 68.6039 255.054 69.0172C255.168 69.4305 255.441 69.7819 255.813 69.9956Z"
          fill="white"
        />
      </g>
      <path
        d="M144.434 88.9717C167.173 88.9717 185.606 74.5822 185.606 56.832C185.606 39.0818 167.173 24.6924 144.434 24.6924C121.696 24.6924 103.263 39.0818 103.263 56.832C103.263 74.5822 121.696 88.9717 144.434 88.9717Z"
        fill="#E9ECF2"
        stroke="#E9ECF2"
        strokeWidth="1.24191"
        strokeLinecap="round"
        strokeLinejoin="round"
      />
      <path
        d="M173.483 36.6451C179.609 42.0088 183.334 49.0821 183.334 56.8321C183.334 73.6 165.925 87.1909 144.449 87.1909C122.972 87.1909 105.563 73.6 105.563 56.8321C105.563 46.3539 112.366 37.1223 122.709 31.666"
        fill="#E9ECF2"
      />
      <path
        d="M173.483 36.6451C179.609 42.0088 183.334 49.0821 183.334 56.8321C183.334 73.6 165.925 87.1909 144.449 87.1909C122.972 87.1909 105.563 73.6 105.563 56.8321C105.563 46.3539 112.366 37.1223 122.709 31.666"
        stroke="white"
        strokeWidth="1.24191"
        strokeLinecap="round"
        strokeLinejoin="round"
      />
      <path
        d="M127.574 29.4721C130.708 28.302 133.958 27.4709 137.269 26.9933L127.574 29.4721Z"
        fill="#E9ECF2"
      />
      <path
        d="M127.574 29.4721C130.708 28.302 133.958 27.4709 137.269 26.9933"
        stroke="white"
        strokeWidth="1.24191"
        strokeLinecap="round"
        strokeLinejoin="round"
      />
      <path
        d="M144.435 86.5143C181.21 86.5143 211.022 76.6216 211.022 64.4183C211.022 52.215 181.21 42.3223 144.435 42.3223C107.66 42.3223 77.8477 52.215 77.8477 64.4183C77.8477 76.6216 107.66 86.5143 144.435 86.5143Z"
        fill="#C6C1C0"
        stroke="#E9ECF2"
        strokeWidth="1.24191"
        strokeLinecap="round"
        strokeLinejoin="round"
      />
      <path
        d="M144.435 94.4778C196.832 94.4778 239.308 84.585 239.308 72.3818C239.308 60.1785 196.832 50.2858 144.435 50.2858C92.0377 50.2858 49.5615 60.1785 49.5615 72.3818C49.5615 84.585 92.0377 94.4778 144.435 94.4778Z"
        fill="#C6C1C0"
        stroke="#E9ECF2"
        strokeWidth="1.24191"
        strokeLinecap="round"
        strokeLinejoin="round"
      />
      <path
        d="M144.435 100.369C204.967 100.369 254.039 90.476 254.039 78.2728C254.039 66.0695 204.967 56.1768 144.435 56.1768C83.9024 56.1768 34.8311 66.0695 34.8311 78.2728C34.8311 90.476 83.9024 100.369 144.435 100.369Z"
        fill="#E9ECF2"
        stroke="#E9ECF2"
        strokeWidth="1.24191"
        strokeLinecap="round"
        strokeLinejoin="round"
      />
      <path
        d="M144.491 93.7083C189.827 93.7083 226.579 86.7943 226.579 78.2654C226.579 69.7364 189.827 62.8224 144.491 62.8224C99.156 62.8224 62.4043 69.7364 62.4043 78.2654C62.4043 86.7943 99.156 93.7083 144.491 93.7083Z"
        fill="#C6C1C0"
        stroke="#E9ECF2"
        strokeWidth="1.24191"
        strokeLinecap="round"
        strokeLinejoin="round"
      />
      <path
        opacity="0.6"
        d="M180.969 78.2726H107.9L54.3057 259.393C68.2231 271.637 84.5123 280.885 102.159 286.561C138.43 298.057 163.197 266.21 196.811 267.983C213.195 268.845 229.193 268.646 243.112 265.241L180.969 78.2726Z"
        fill="url(#paint0_linear_4315_47037)"
      />
      <path
        d="M144.435 85.638C164.613 85.638 180.97 82.3404 180.97 78.2727C180.97 74.2049 164.613 70.9073 144.435 70.9073C124.258 70.9073 107.9 74.2049 107.9 78.2727C107.9 82.3404 124.258 85.638 144.435 85.638Z"
        fill="#E9ECF2"
        stroke="#E9ECF2"
        strokeWidth="1.24191"
        strokeLinecap="round"
        strokeLinejoin="round"
      />
      <path
        d="M144.492 63.4994C149.299 63.4994 153.196 62.6447 153.196 61.5904C153.196 60.5361 149.299 59.6814 144.492 59.6814C139.684 59.6814 135.787 60.5361 135.787 61.5904C135.787 62.6447 139.684 63.4994 144.492 63.4994Z"
        fill="white"
        stroke="#E9ECF2"
        strokeWidth="1.24191"
        strokeLinecap="round"
        strokeLinejoin="round"
      />
      <path
        d="M63.837 78.1372C63.837 78.8495 61.1729 79.4479 57.882 79.4479C54.5911 79.4479 51.9199 78.8566 51.9199 78.1372C51.9199 77.4178 54.5911 76.8265 57.882 76.8265C61.1729 76.8265 63.837 77.4249 63.837 78.1372Z"
        fill="white"
        stroke="#E9ECF2"
        strokeWidth="1.24191"
        strokeLinecap="round"
        strokeLinejoin="round"
      />
      <path
        d="M238.802 78.1372C238.802 78.8495 236.131 79.4479 232.84 79.4479C229.549 79.4479 226.906 78.8495 226.906 78.1372C226.906 77.4249 229.57 76.8265 232.861 76.8265C236.152 76.8265 238.802 77.4249 238.802 78.1372Z"
        fill="white"
        stroke="#E9ECF2"
        strokeWidth="1.24191"
        strokeLinecap="round"
        strokeLinejoin="round"
      />
      <path
        d="M198.243 69.4828C202.736 69.4828 206.378 68.6823 206.378 67.6949C206.378 66.7075 202.736 65.907 198.243 65.907C193.75 65.907 190.108 66.7075 190.108 67.6949C190.108 68.6823 193.75 69.4828 198.243 69.4828Z"
        fill="white"
        stroke="#E9ECF2"
        strokeWidth="1.24191"
        strokeLinecap="round"
        strokeLinejoin="round"
      />
      <path
        d="M97.1014 69.4828C101.594 69.4828 105.236 68.6823 105.236 67.6949C105.236 66.7075 101.594 65.907 97.1014 65.907C92.6088 65.907 88.9668 66.7075 88.9668 67.6949C88.9668 68.6823 92.6088 69.4828 97.1014 69.4828Z"
        fill="white"
        stroke="#E9ECF2"
        strokeWidth="1.24191"
        strokeLinecap="round"
        strokeLinejoin="round"
      />
      <path
        d="M198.243 89.9333C201.532 89.9333 204.198 89.3465 204.198 88.6227C204.198 87.8988 201.532 87.312 198.243 87.312C194.954 87.312 192.288 87.8988 192.288 88.6227C192.288 89.3465 194.954 89.9333 198.243 89.9333Z"
        fill="white"
        stroke="#E9ECF2"
        strokeWidth="1.24191"
        strokeLinecap="round"
        strokeLinejoin="round"
      />
      <path
        d="M97.1014 89.9333C100.39 89.9333 103.056 89.3465 103.056 88.6227C103.056 87.8988 100.39 87.312 97.1014 87.312C93.8126 87.312 91.1465 87.8988 91.1465 88.6227C91.1465 89.3465 93.8126 89.9333 97.1014 89.9333Z"
        fill="white"
        stroke="#E9ECF2"
        strokeWidth="1.24191"
        strokeLinecap="round"
        strokeLinejoin="round"
      />
      <path
        d="M78.5032 177.006L76.4873 183.944"
        stroke="#E9ECF2"
        strokeWidth="1.24191"
        strokeLinecap="round"
        strokeLinejoin="round"
      />
      <path
        d="M96.4816 115.128L80.5898 169.841"
        stroke="#E9ECF2"
        strokeWidth="1.24191"
        strokeLinecap="round"
        strokeLinejoin="round"
      />
      <path
        d="M106.234 81.5493L98.2129 109.173"
        stroke="#E9ECF2"
        strokeWidth="1.24191"
        strokeLinecap="round"
        strokeLinejoin="round"
      />
      <path
        d="M180.97 78.2726L215.389 180.404"
        stroke="#E9ECF2"
        strokeWidth="1.24191"
        strokeLinecap="round"
        strokeLinejoin="round"
      />
      <path
        d="M122.823 87.2692L114.816 131.889"
        stroke="#E9ECF2"
        strokeWidth="1.24191"
        strokeLinecap="round"
        strokeLinejoin="round"
      />
      <path
        d="M170.876 87.2692L185.179 166.785"
        stroke="#E9ECF2"
        strokeWidth="1.24191"
        strokeLinecap="round"
        strokeLinejoin="round"
      />
      <path
        d="M144.435 181.088V190.241"
        stroke="#E9ECF2"
        strokeWidth="1.24191"
        strokeLinecap="round"
        strokeLinejoin="round"
      />
      <path
        d="M144.435 100.376V172.505"
        stroke="#E9ECF2"
        strokeWidth="1.24191"
        strokeLinecap="round"
        strokeLinejoin="round"
      />
      <path
        d="M144.435 70.9075C137.444 70.8731 130.459 71.3158 123.528 72.2324C125.544 76.4065 134.356 79.5549 144.898 79.5549C155.44 79.5549 164.088 76.4706 166.217 72.3606C159.001 71.3518 151.721 70.8662 144.435 70.9075Z"
        fill="white"
        stroke="#E9ECF2"
        strokeWidth="1.24191"
        strokeMiterlimit="10"
      />
      <defs>
        <linearGradient
          className="text-primary"
          id="paint0_linear_4315_47037"
          x1="148.709"
          y1="78.2726"
          x2="148.709"
          y2="289.069"
          gradientUnits="userSpaceOnUse"
        >
          <stop stopColor="currentColor" />
          <stop offset="1" stopColor="white" />
        </linearGradient>
      </defs>
    </svg>