<svg width="24" height="24" viewBox="0 0 24 24" fill="none" xmlns="http://www.w3.org/2000/svg">
<rect width="24" height="24" fill="white"/>
<g clip-path="url(#clip0_7_9244)">
<path d="M4.91365 9.64527C5.19836 8.12836 5.50175 6.61144 5.76313 5.08752C5.88682 4.35473 6.26721 4 7.01167 4C11.6254 4 16.2369 4 20.9977 4C20.7806 4.99883 20.6359 5.93466 20.3629 6.83081C20.0432 7.87631 19.196 8.33139 18.1622 8.43874C17.6628 8.48775 17.1564 8.48075 16.6546 8.49942C15.8425 8.96616 14.9627 8.77946 14.1015 8.77713C12.0969 8.75846 10.0875 8.77713 8.08051 8.76313C7.22753 8.72705 6.38485 8.96059 5.67211 9.43058C5.5716 9.52367 5.45048 9.59166 5.31865 9.62897C5.18683 9.66629 5.04805 9.67187 4.91365 9.64527Z" fill="#004E95"/>
<path d="M4.91364 9.64527L5.26837 9.4119C6.33809 8.8661 7.53218 8.61023 8.73162 8.66978C10.1319 8.73046 11.5321 8.69078 12.9183 8.66978C13.294 8.66978 13.7001 8.77013 14.0245 8.46207L16.6546 8.49475C16.0548 12.4341 15.5414 12.8728 11.5204 12.8681C10.944 12.8681 10.3676 12.8845 9.79113 12.8938C9.11668 13.3792 8.34655 13.1575 7.61143 13.1925C6.25553 12.9965 5.24037 13.86 4.09451 14.3197L4.91364 9.64527Z" fill="#F7A51A"/>
<path d="M9.58576 13.5823C9.47374 15.2415 9.09334 16.8495 8.73162 18.4691C8.45624 19.6943 7.54842 20.3361 6.28587 20.3781C5.4364 20.4107 4.58226 20.3524 3.73512 20.4014C3.09568 20.4387 2.91365 20.1984 3.035 19.6056C3.37106 17.972 3.69077 16.3571 4.01749 14.7328C4.61493 13.6523 5.63944 13.3606 6.76429 13.2579C7.70478 13.3652 8.70828 12.9312 9.58576 13.5823Z" fill="#004D95"/>
<path d="M9.58576 13.5823L6.53325 13.5659C6.53325 12.8821 7.29171 13.3046 7.47841 12.9008H9.79813C9.72812 13.1295 9.65811 13.3559 9.58576 13.5823Z" fill="#053B76"/>
<path d="M7.47842 12.9008C7.63011 13.783 6.6266 13.0315 6.53325 13.5659C5.48541 13.5006 4.71762 14.0327 4.0175 14.7328C4.04551 14.5951 4.07585 14.4574 4.10152 14.3244C4.98367 13.2859 6.13419 12.8635 7.47842 12.9008Z" fill="#0D2152"/>
<path d="M14.0245 8.46907C14.1529 9.0665 13.6838 8.84714 13.4504 8.85414C12.1015 8.89148 10.748 8.97316 9.40607 8.89848C7.9825 8.8168 6.64062 9.19487 5.26839 9.40957C5.55585 9.09496 5.90816 8.84647 6.301 8.68128C6.69384 8.51608 7.11786 8.43811 7.54377 8.45274C9.70479 8.43174 11.8635 8.45974 14.0245 8.46907Z" fill="#4B2D07"/>
</g>
<defs>
<clipPath id="clip0_7_9244">
<rect width="18" height="16.4037" fill="white" transform="translate(3 4)"/>
</clipPath>
</defs>
</svg>
