<svg width="100" height="100" viewBox="0 0 100 100" fill="none" xmlns="http://www.w3.org/2000/svg">
<g id="Frame" clip-path="url(#clip0_3035_20222)">
<rect id="Rectangle 39500" x="13.332" y="5.83398" width="73.3333" height="41.6667" rx="13" fill="#9075E1" fill-opacity="0.2"/>
<rect id="Rectangle 39501" x="5" y="15.834" width="90" height="51.6667" rx="13" fill="#9075E1" fill-opacity="0.4"/>
<rect id="Rectangle 39502" x="27.5" y="35.834" width="45.8333" height="40" fill="white"/>
<path id="Vector" fill-rule="evenodd" clip-rule="evenodd" d="M15.6336 27.6429C6.89952 27.6429 0.0117188 34.2524 0.0117188 42.9592V84.6863C0.0117188 93.3929 6.89952 100.003 15.6336 100.003H84.3668C92.6843 100.003 99.9885 92.9867 99.9885 84.6863V42.9592C99.9885 34.2524 93.101 27.6429 84.3668 27.6429H15.6336ZM49.7914 61.8479C56.1468 61.8479 61.2989 56.6959 61.2989 50.3404C61.2989 43.9854 56.1468 38.8333 49.7914 38.8333C43.436 38.8333 38.2841 43.9854 38.2841 50.3404C38.2841 56.6959 43.436 61.8479 49.7914 61.8479ZM29.9799 85.7875C29.8631 86.9325 30.8072 87.8679 31.9578 87.8679H67.6247C68.7751 87.8679 69.7193 86.9325 69.6026 85.7875C68.5747 75.7142 60.1535 67.9509 49.7914 67.9509C39.4292 67.9509 31.008 75.7142 29.9799 85.7875Z" fill="#9075E1"/>
</g>
<defs>
<clipPath id="clip0_3035_20222">
<rect width="100" height="100" fill="white"/>
</clipPath>
</defs>
</svg>
