<svg width="20" height="20" viewBox="0 0 20 20" fill="none" xmlns="http://www.w3.org/2000/svg">
<g id="Frame">
<path id="Vector" d="M14.3737 4.95834C15.5703 4.95834 16.5403 3.98829 16.5403 2.79168C16.5403 1.59506 15.5703 0.625 14.3737 0.625C13.177 0.625 12.207 1.59506 12.207 2.79168C12.207 3.98829 13.177 4.95834 14.3737 4.95834Z" stroke="#1F2C35" stroke-miterlimit="10" stroke-linecap="round" stroke-linejoin="round"/>
<path id="Vector_2" d="M18.125 9.375C18.125 7.29167 16.4583 5.625 14.375 5.625C12.2917 5.625 10.625 7.29167 10.625 9.375" stroke="#1F2C35" stroke-miterlimit="10" stroke-linecap="round" stroke-linejoin="round"/>
<path id="Vector_3" d="M5.62371 14.9583C6.82032 14.9583 7.79036 13.9883 7.79036 12.7917C7.79036 11.5951 6.82032 10.625 5.62371 10.625C4.42709 10.625 3.45703 11.5951 3.45703 12.7917C3.45703 13.9883 4.42709 14.9583 5.62371 14.9583Z" stroke="#1F2C35" stroke-miterlimit="10" stroke-linecap="round" stroke-linejoin="round"/>
<path id="Vector_4" d="M9.375 19.375C9.375 17.2917 7.70833 15.625 5.625 15.625C3.54167 15.625 1.875 17.2917 1.875 19.375" stroke="#1F2C35" stroke-miterlimit="10" stroke-linecap="round" stroke-linejoin="round"/>
<path id="Vector_5" d="M14.625 11.625V18.7083" stroke="#9075E1" stroke-miterlimit="10" stroke-linecap="round" stroke-linejoin="round"/>
<path id="Vector_6" d="M12.125 16.207L14.625 18.707L17.125 16.207" stroke="#9075E1" stroke-miterlimit="10" stroke-linecap="round" stroke-linejoin="round"/>
<path id="Vector_7" d="M5.04297 8.29036V1.20703" stroke="#E95454" stroke-miterlimit="10" stroke-linecap="round" stroke-linejoin="round"/>
<path id="Vector_8" d="M2.54297 3.70703L5.04297 1.20703L7.54297 3.70703" stroke="#E95454" stroke-miterlimit="10" stroke-linecap="round" stroke-linejoin="round"/>
</g>
</svg>
