<svg width="87" height="32" viewBox="0 0 87 32" fill="none" xmlns="http://www.w3.org/2000/svg">
<g id="Group 1000003533">
<path id="TREQ (Stroke)" opacity="0.7" fill-rule="evenodd" clip-rule="evenodd" d="M13.2141 26.125H7.26028V7.3725H0V1.87477H20.5065V7.3725H13.2141V26.125ZM12.6787 25.5871H7.79569V6.83456H0.535419V2.41271H19.9711V6.83456H12.6787V25.5871ZM28.3024 26.125H22.3485V1.87477H31.9111C34.8926 1.87477 37.3253 2.56897 39.0227 3.9516C40.7364 5.34752 41.6343 7.39143 41.6343 9.93309C41.6343 13.1088 39.7902 15.65 36.7163 16.9141L42.8392 26.125H35.7296L30.5253 17.9269H28.3024V26.125ZM30.8189 17.3889L36.0231 25.5871H41.8378L35.8946 16.6466C36.0712 16.5874 36.2439 16.5242 36.4126 16.4572C39.3736 15.2794 41.0989 12.8952 41.0989 9.93309C41.0989 5.12392 37.7258 2.41271 31.9111 2.41271H22.884V25.5871H27.767V17.3889H30.8189ZM31.6862 7.01746H28.3024V12.8164H31.6862C33.1078 12.8164 34.1068 12.5347 34.7388 12.0601C35.3441 11.6056 35.6805 10.9234 35.6805 9.93309C35.6805 8.92403 35.3422 8.23412 34.7374 7.77676C34.1059 7.29925 33.108 7.01746 31.6862 7.01746ZM60.9277 20.7887V26.125H44.3404V1.87477H60.7028V7.21112H50.2943V11.009H59.7391V16.313H50.2943V20.7887H60.9277ZM60.3923 21.3266V25.5871H44.8759V2.41271H60.1674V6.67318H49.7589V11.5469H59.2037V15.7751H49.7589V21.3266H60.3923ZM79.7504 31.4614L76.6664 25.9099C75.9918 26.0067 75.3172 26.0712 74.6104 26.0712C67.9605 26.0712 62.8205 20.907 62.8205 13.9676C62.8205 7.02822 67.9605 1.92856 74.6104 1.92856C81.2924 1.92856 86.4646 7.02822 86.4646 13.9676C86.4646 18.5186 84.248 22.2949 80.8427 24.3606L84.6977 31.4614H79.7504ZM81.5528 24.5453C84.8756 22.3292 87 18.5072 87 13.9676C87 6.73208 81.5891 1.39062 74.6104 1.39062C67.661 1.39062 62.2851 6.73497 62.2851 13.9676C62.2851 21.1965 67.6572 26.6092 74.6104 26.6092C75.2198 26.6092 75.8032 26.5633 76.3764 26.4916L79.4361 31.9993H85.5996L81.5528 24.5453ZM70.0528 19.0761C71.12 20.351 72.6649 21.1437 74.6104 21.1437C76.5733 21.1437 78.1261 20.3499 79.1967 19.0754C80.2747 17.7921 80.8855 15.9929 80.8855 13.9676C80.8855 11.9427 80.2749 10.1609 79.1987 8.8945C78.1296 7.63651 76.5768 6.85608 74.6104 6.85608C72.6614 6.85608 71.1165 7.63551 70.0508 8.89381C68.9781 10.1605 68.3674 11.9427 68.3674 13.9676C68.3674 15.9929 68.9783 17.7925 70.0528 19.0761ZM27.767 6.47952V13.3544H31.6862C34.6417 13.3544 36.2159 12.1924 36.2159 9.93309C36.2159 7.64147 34.6417 6.47952 31.6862 6.47952H27.767ZM67.832 13.9676C67.832 18.2281 70.402 21.6817 74.6104 21.6817C78.8509 21.6817 81.4209 18.2281 81.4209 13.9676C81.4209 9.70715 78.8509 6.31814 74.6104 6.31814C70.402 6.31814 67.832 9.70715 67.832 13.9676Z" fill="url(#paint0_linear_2301_14434)"/>
<g id="TREQ">
<path d="M12.0963 23.4058V4.8536H19.3605V0.478973H0V4.8536H7.23219V23.4058H12.0963Z" fill="#1F2C35"/>
<path d="M27.1262 23.4058V15.2952H30.1663L35.3504 23.4058H41.1426L35.2224 14.5608C38.4865 13.4751 40.4066 11.0164 40.4066 7.91903C40.4066 3.16123 37.0465 0.478973 31.2543 0.478973H22.2621V23.4058H27.1262ZM27.1262 4.50235H31.0303C33.9744 4.50235 35.5424 5.65189 35.5424 7.91903C35.5424 10.1542 33.9744 11.3038 31.0303 11.3038H27.1262V4.50235Z" fill="#1F2C35"/>
<path d="M59.6253 19.1909H49.0331V13.6986H58.4413V9.51561H49.0331V4.69394H59.4013V0.478973H44.1689V23.4058H59.6253V19.1909Z" fill="#1F2C35"/>
<path d="M73.7885 23.8848C74.4925 23.8848 75.1645 23.821 75.8365 23.7252L78.9086 29.2174H83.8367L79.9966 22.1924C83.3887 20.1488 85.5968 16.4128 85.5968 11.9105C85.5968 5.04519 80.4446 0 73.7885 0C67.1643 0 62.0441 5.04519 62.0441 11.9105C62.0441 18.7758 67.1643 23.8848 73.7885 23.8848ZM73.7885 19.5421C69.5963 19.5421 67.0363 16.1254 67.0363 11.9105C67.0363 7.69551 69.5963 4.3427 73.7885 4.3427C78.0126 4.3427 80.5726 7.69551 80.5726 11.9105C80.5726 16.1254 78.0126 19.5421 73.7885 19.5421Z" fill="#1F2C35"/>
</g>
</g>
<defs>
<linearGradient id="paint0_linear_2301_14434" x1="24.9471" y1="26.0753" x2="25.2286" y2="1.52191" gradientUnits="userSpaceOnUse">
<stop stop-color="white"/>
<stop offset="0.15625" stop-color="white" stop-opacity="0"/>
<stop offset="1" stop-color="white" stop-opacity="0"/>
</linearGradient>
</defs>
</svg>
