<svg width="19" height="20" viewBox="0 0 19 20" fill="none" xmlns="http://www.w3.org/2000/svg">
<g id="Group 1000003685">
<path id="Vector" d="M9.645 18.6455C14.4196 18.6455 18.29 14.775 18.29 10.0005C18.29 5.22597 14.4196 1.35547 9.645 1.35547C4.8705 1.35547 1 5.22597 1 10.0005C1 14.775 4.8705 18.6455 9.645 18.6455Z" stroke="#7F8899" stroke-width="1.2" stroke-linecap="round" stroke-linejoin="round"/>
<path id="Vector_2" d="M7.64844 13.9961H11.6384" stroke="#7F8899" stroke-width="1.2" stroke-linecap="round" stroke-linejoin="round"/>
<path id="Vector_3" d="M9.64547 6.67766C10.0127 6.67766 10.3105 6.37992 10.3105 6.01266C10.3105 5.64539 10.0127 5.34766 9.64547 5.34766C9.2782 5.34766 8.98047 5.64539 8.98047 6.01266C8.98047 6.37992 9.2782 6.67766 9.64547 6.67766Z" stroke="#7F8899" stroke-width="1.2" stroke-linecap="round" stroke-linejoin="round"/>
<path id="Vector_4" d="M9.64641 13.9987V9.34375H8.31641" stroke="#7F8899" stroke-width="1.2" stroke-linecap="round" stroke-linejoin="round"/>
</g>
</svg>
