<svg width="62" height="31" viewBox="0 0 62 31" fill="none" xmlns="http://www.w3.org/2000/svg">
<g id="Group 1000003533">
<path id="TREQ (Stroke)" opacity="0.1" fill-rule="evenodd" clip-rule="evenodd" d="M9.41697 26.7779H5.17399V13.2995H0V9.34798H14.6138V13.2995H9.41697V26.7779ZM9.0354 26.3912H5.55555V12.9128H0.381563V9.73462H14.2323V12.9128H9.0354V26.3912ZM20.1695 26.7779H15.9265V9.34798H22.7413C24.866 9.34798 26.5996 9.84693 27.8093 10.8407C29.0305 11.844 29.6704 13.3131 29.6704 15.1399C29.6704 17.4224 28.3562 19.2489 26.1657 20.1575L30.5291 26.7779H25.4624L21.7537 20.8854H20.1695V26.7779ZM21.9629 20.4988L25.6717 26.3912H29.8154L25.5801 19.9652C25.7059 19.9227 25.829 19.8773 25.9492 19.8291C28.0593 18.9826 29.2889 17.2689 29.2889 15.1399C29.2889 11.6833 26.885 9.73462 22.7413 9.73462H16.3081V26.3912H19.788V20.4988H21.9629ZM22.581 13.0443H20.1695V17.2123H22.581C23.5941 17.2123 24.306 17.0098 24.7564 16.6687C25.1878 16.342 25.4275 15.8517 25.4275 15.1399C25.4275 14.4146 25.1864 13.9188 24.7554 13.59C24.3054 13.2468 23.5942 13.0443 22.581 13.0443ZM43.4197 22.9424V26.7779H31.5989V9.34798H43.2595V13.1835H35.8419V15.9132H42.5727V19.7255H35.8419V22.9424H43.4197ZM43.0382 23.329V26.3912H31.9805V9.73462H42.8779V12.7968H35.4603V16.2998H42.1911V19.3388H35.4603V23.329H43.0382ZM56.8336 30.6134L54.6358 26.6232C54.1551 26.6928 53.6743 26.7392 53.1706 26.7392C48.4316 26.7392 44.7686 23.0274 44.7686 18.0397C44.7686 13.052 48.4316 9.38664 53.1706 9.38664C57.9325 9.38664 61.6184 13.052 61.6184 18.0397C61.6184 21.3107 60.0388 24.025 57.612 25.5097L60.3593 30.6134H56.8336ZM58.1181 25.6424C60.4861 24.0496 62 21.3025 62 18.0397C62 12.8392 58.1439 9 53.1706 9C48.2182 9 44.3871 12.8412 44.3871 18.0397C44.3871 23.2354 48.2155 27.1258 53.1706 27.1258C53.6049 27.1258 54.0207 27.0928 54.4292 27.0413L56.6096 31H61.002L58.1181 25.6424ZM49.9227 21.7114C50.6832 22.6277 51.7842 23.1975 53.1706 23.1975C54.5695 23.1975 55.6761 22.627 56.439 21.7109C57.2072 20.7885 57.6426 19.4954 57.6426 18.0397C57.6426 16.5843 57.2074 15.3037 56.4404 14.3934C55.6786 13.4892 54.572 12.9283 53.1706 12.9283C51.7817 12.9283 50.6807 13.4885 49.9213 14.3929C49.1568 15.3034 48.7216 16.5843 48.7216 18.0397C48.7216 19.4954 49.157 20.7888 49.9227 21.7114ZM19.788 12.6576V17.5989H22.581C24.6872 17.5989 25.809 16.7638 25.809 15.1399C25.809 13.4928 24.6872 12.6576 22.581 12.6576H19.788ZM48.3401 18.0397C48.3401 21.1019 50.1716 23.5842 53.1706 23.5842C56.1926 23.5842 58.0241 21.1019 58.0241 18.0397C58.0241 14.9775 56.1926 12.5417 53.1706 12.5417C50.1716 12.5417 48.3401 14.9775 48.3401 18.0397Z" fill="url(#paint0_linear_4693_65588)"/>
<path id="TREQ (Stroke)_2" opacity="0.3" fill-rule="evenodd" clip-rule="evenodd" d="M9.41697 24.7779H5.17399V11.2995H0V7.34798H14.6138V11.2995H9.41697V24.7779ZM9.0354 24.3912H5.55555V10.9128H0.381563V7.73462H14.2323V10.9128H9.0354V24.3912ZM20.1695 24.7779H15.9265V7.34798H22.7413C24.866 7.34798 26.5996 7.84693 27.8093 8.8407C29.0305 9.84402 29.6704 11.3131 29.6704 13.1399C29.6704 15.4224 28.3562 17.2489 26.1657 18.1575L30.5291 24.7779H25.4624L21.7537 18.8854H20.1695V24.7779ZM21.9629 18.4988L25.6717 24.3912H29.8154L25.5801 17.9652C25.7059 17.9227 25.829 17.8773 25.9492 17.8291C28.0593 16.9826 29.2889 15.2689 29.2889 13.1399C29.2889 9.68331 26.885 7.73462 22.7413 7.73462H16.3081V24.3912H19.788V18.4988H21.9629ZM22.581 11.0443H20.1695V15.2123H22.581C23.5941 15.2123 24.306 15.0098 24.7564 14.6687C25.1878 14.342 25.4275 13.8517 25.4275 13.1399C25.4275 12.4146 25.1864 11.9188 24.7554 11.59C24.3054 11.2468 23.5942 11.0443 22.581 11.0443ZM43.4197 20.9424V24.7779H31.5989V7.34798H43.2595V11.1835H35.8419V13.9132H42.5727V17.7255H35.8419V20.9424H43.4197ZM43.0382 21.329V24.3912H31.9805V7.73462H42.8779V10.7968H35.4603V14.2998H42.1911V17.3388H35.4603V21.329H43.0382ZM56.8336 28.6134L54.6358 24.6232C54.1551 24.6928 53.6743 24.7392 53.1706 24.7392C48.4316 24.7392 44.7686 21.0274 44.7686 16.0397C44.7686 11.052 48.4316 7.38664 53.1706 7.38664C57.9325 7.38664 61.6184 11.052 61.6184 16.0397C61.6184 19.3107 60.0388 22.025 57.612 23.5097L60.3593 28.6134H56.8336ZM58.1181 23.6424C60.4861 22.0496 62 19.3025 62 16.0397C62 10.8392 58.1439 7 53.1706 7C48.2182 7 44.3871 10.8412 44.3871 16.0397C44.3871 21.2354 48.2155 25.1258 53.1706 25.1258C53.6049 25.1258 54.0207 25.0928 54.4292 25.0413L56.6096 29H61.002L58.1181 23.6424ZM49.9227 19.7114C50.6832 20.6277 51.7842 21.1975 53.1706 21.1975C54.5695 21.1975 55.6761 20.627 56.439 19.7109C57.2072 18.7885 57.6426 17.4954 57.6426 16.0397C57.6426 14.5843 57.2074 13.3037 56.4404 12.3934C55.6786 11.4892 54.572 10.9283 53.1706 10.9283C51.7817 10.9283 50.6807 11.4885 49.9213 12.3929C49.1568 13.3034 48.7216 14.5843 48.7216 16.0397C48.7216 17.4954 49.157 18.7888 49.9227 19.7114ZM19.788 10.6576V15.5989H22.581C24.6872 15.5989 25.809 14.7638 25.809 13.1399C25.809 11.4928 24.6872 10.6576 22.581 10.6576H19.788ZM48.3401 16.0397C48.3401 19.1019 50.1716 21.5842 53.1706 21.5842C56.1926 21.5842 58.0241 19.1019 58.0241 16.0397C58.0241 12.9775 56.1926 10.5417 53.1706 10.5417C50.1716 10.5417 48.3401 12.9775 48.3401 16.0397Z" fill="url(#paint1_linear_4693_65588)"/>
<path id="TREQ (Stroke)_3" opacity="0.5" fill-rule="evenodd" clip-rule="evenodd" d="M9.41697 21.7779H5.17399V8.29947H0V4.34798H14.6138V8.29947H9.41697V21.7779ZM9.0354 21.3912H5.55555V7.91283H0.381563V4.73462H14.2323V7.91283H9.0354V21.3912ZM20.1695 21.7779H15.9265V4.34798H22.7413C24.866 4.34798 26.5996 4.84693 27.8093 5.8407C29.0305 6.84402 29.6704 8.31308 29.6704 10.1399C29.6704 12.4224 28.3562 14.2489 26.1657 15.1575L30.5291 21.7779H25.4624L21.7537 15.8854H20.1695V21.7779ZM21.9629 15.4988L25.6717 21.3912H29.8154L25.5801 14.9652C25.7059 14.9227 25.829 14.8773 25.9492 14.8291C28.0593 13.9826 29.2889 12.2689 29.2889 10.1399C29.2889 6.68331 26.885 4.73462 22.7413 4.73462H16.3081V21.3912H19.788V15.4988H21.9629ZM22.581 8.04429H20.1695V12.2123H22.581C23.5941 12.2123 24.306 12.0098 24.7564 11.6687C25.1878 11.342 25.4275 10.8517 25.4275 10.1399C25.4275 9.41464 25.1864 8.91876 24.7554 8.59003C24.3054 8.24682 23.5942 8.04429 22.581 8.04429ZM43.4197 17.9424V21.7779H31.5989V4.34798H43.2595V8.18348H35.8419V10.9132H42.5727V14.7255H35.8419V17.9424H43.4197ZM43.0382 18.329V21.3912H31.9805V4.73462H42.8779V7.79684H35.4603V11.2998H42.1911V14.3388H35.4603V18.329H43.0382ZM56.8336 25.6134L54.6358 21.6232C54.1551 21.6928 53.6743 21.7392 53.1706 21.7392C48.4316 21.7392 44.7686 18.0274 44.7686 13.0397C44.7686 8.05202 48.4316 4.38664 53.1706 4.38664C57.9325 4.38664 61.6184 8.05202 61.6184 13.0397C61.6184 16.3107 60.0388 19.025 57.612 20.5097L60.3593 25.6134H56.8336ZM58.1181 20.6424C60.4861 19.0496 62 16.3025 62 13.0397C62 7.83917 58.1439 4 53.1706 4C48.2182 4 44.3871 7.84125 44.3871 13.0397C44.3871 18.2354 48.2155 22.1258 53.1706 22.1258C53.6049 22.1258 54.0207 22.0928 54.4292 22.0413L56.6096 26H61.002L58.1181 20.6424ZM49.9227 16.7114C50.6832 17.6277 51.7842 18.1975 53.1706 18.1975C54.5695 18.1975 55.6761 17.627 56.439 16.7109C57.2072 15.7885 57.6426 14.4954 57.6426 13.0397C57.6426 11.5843 57.2074 10.3037 56.4404 9.39341C55.6786 8.48923 54.572 7.9283 53.1706 7.9283C51.7817 7.9283 50.6807 8.48851 49.9213 9.39291C49.1568 10.3034 48.7216 11.5843 48.7216 13.0397C48.7216 14.4954 49.157 15.7888 49.9227 16.7114ZM19.788 7.65765V12.5989H22.581C24.6872 12.5989 25.809 11.7638 25.809 10.1399C25.809 8.49279 24.6872 7.65765 22.581 7.65765H19.788ZM48.3401 13.0397C48.3401 16.1019 50.1716 18.5842 53.1706 18.5842C56.1926 18.5842 58.0241 16.1019 58.0241 13.0397C58.0241 9.97751 56.1926 7.54165 53.1706 7.54165C50.1716 7.54165 48.3401 9.97751 48.3401 13.0397Z" fill="url(#paint2_linear_4693_65588)"/>
<path id="TREQ (Stroke)_4" opacity="0.7" fill-rule="evenodd" clip-rule="evenodd" d="M9.41697 18.7779H5.17399V5.29947H0V1.34798H14.6138V5.29947H9.41697V18.7779ZM9.0354 18.3912H5.55555V4.91283H0.381563V1.73462H14.2323V4.91283H9.0354V18.3912ZM20.1695 18.7779H15.9265V1.34798H22.7413C24.866 1.34798 26.5996 1.84693 27.8093 2.8407C29.0305 3.84402 29.6704 5.31308 29.6704 7.1399C29.6704 9.42244 28.3562 11.2489 26.1657 12.1575L30.5291 18.7779H25.4624L21.7537 12.8854H20.1695V18.7779ZM21.9629 12.4988L25.6717 18.3912H29.8154L25.5801 11.9652C25.7059 11.9227 25.829 11.8773 25.9492 11.8291C28.0593 10.9826 29.2889 9.26888 29.2889 7.1399C29.2889 3.68331 26.885 1.73462 22.7413 1.73462H16.3081V18.3912H19.788V12.4988H21.9629ZM22.581 5.04429H20.1695V9.2123H22.581C23.5941 9.2123 24.306 9.00982 24.7564 8.66868C25.1878 8.34201 25.4275 7.85169 25.4275 7.1399C25.4275 6.41464 25.1864 5.91876 24.7554 5.59003C24.3054 5.24682 23.5942 5.04429 22.581 5.04429ZM43.4197 14.9424V18.7779H31.5989V1.34798H43.2595V5.18348H35.8419V7.91318H42.5727V11.7255H35.8419V14.9424H43.4197ZM43.0382 15.329V18.3912H31.9805V1.73462H42.8779V4.79684H35.4603V8.29982H42.1911V11.3388H35.4603V15.329H43.0382ZM56.8336 22.6134L54.6358 18.6232C54.1551 18.6928 53.6743 18.7392 53.1706 18.7392C48.4316 18.7392 44.7686 15.0274 44.7686 10.0397C44.7686 5.05202 48.4316 1.38664 53.1706 1.38664C57.9325 1.38664 61.6184 5.05202 61.6184 10.0397C61.6184 13.3107 60.0388 16.025 57.612 17.5097L60.3593 22.6134H56.8336ZM58.1181 17.6424C60.4861 16.0496 62 13.3025 62 10.0397C62 4.83917 58.1439 1 53.1706 1C48.2182 1 44.3871 4.84125 44.3871 10.0397C44.3871 15.2354 48.2155 19.1258 53.1706 19.1258C53.6049 19.1258 54.0207 19.0928 54.4292 19.0413L56.6096 23H61.002L58.1181 17.6424ZM49.9227 13.7114C50.6832 14.6277 51.7842 15.1975 53.1706 15.1975C54.5695 15.1975 55.6761 14.627 56.439 13.7109C57.2072 12.7885 57.6426 11.4954 57.6426 10.0397C57.6426 8.58431 57.2074 7.30366 56.4404 6.39341C55.6786 5.48923 54.572 4.9283 53.1706 4.9283C51.7817 4.9283 50.6807 5.48851 49.9213 6.39291C49.1568 7.30335 48.7216 8.5843 48.7216 10.0397C48.7216 11.4954 49.157 12.7888 49.9227 13.7114ZM19.788 4.65765V9.59895H22.581C24.6872 9.59895 25.809 8.7638 25.809 7.1399C25.809 5.49279 24.6872 4.65765 22.581 4.65765H19.788ZM48.3401 10.0397C48.3401 13.1019 50.1716 15.5842 53.1706 15.5842C56.1926 15.5842 58.0241 13.1019 58.0241 10.0397C58.0241 6.97751 56.1926 4.54165 53.1706 4.54165C50.1716 4.54165 48.3401 6.97751 48.3401 10.0397Z" fill="url(#paint3_linear_4693_65588)"/>
<g id="TREQ">
<path d="M8.62037 16.823V3.48852H13.7972V0.344262H0V3.48852H5.15398V16.823H8.62037Z" fill="white"/>
<path d="M19.3313 16.823V10.9934H21.4978L25.1923 16.823H29.32L25.101 10.4656C27.4272 9.68524 28.7955 7.91803 28.7955 5.6918C28.7955 2.27213 26.4009 0.344262 22.2732 0.344262H15.8649V16.823H19.3313ZM19.3313 3.23607H22.1136C24.2116 3.23607 25.3291 4.06229 25.3291 5.6918C25.3291 7.29836 24.2116 8.12459 22.1136 8.12459H19.3313V3.23607Z" fill="white"/>
<path d="M42.4916 13.7934H34.9431V9.8459H41.6478V6.83934H34.9431V3.37377H42.332V0.344262H31.4767V16.823H42.4916V13.7934Z" fill="white"/>
<path d="M52.5849 17.1672C53.0866 17.1672 53.5655 17.1213 54.0444 17.0525L56.2337 21H59.7457L57.0091 15.9508C59.4264 14.482 61 11.7967 61 8.56066C61 3.62623 57.3284 0 52.5849 0C47.8642 0 44.2154 3.62623 44.2154 8.56066C44.2154 13.4951 47.8642 17.1672 52.5849 17.1672ZM52.5849 14.0459C49.5974 14.0459 47.773 11.5902 47.773 8.56066C47.773 5.53115 49.5974 3.12131 52.5849 3.12131C55.5952 3.12131 57.4196 5.53115 57.4196 8.56066C57.4196 11.5902 55.5952 14.0459 52.5849 14.0459Z" fill="white"/>
</g>
</g>
<defs>
<linearGradient id="paint0_linear_4693_65588" x1="17.7784" y1="26.7421" x2="17.9824" y2="9.0944" gradientUnits="userSpaceOnUse">
<stop stop-color="white"/>
<stop offset="0.15625" stop-color="white" stop-opacity="0"/>
<stop offset="1" stop-color="white" stop-opacity="0"/>
</linearGradient>
<linearGradient id="paint1_linear_4693_65588" x1="17.7784" y1="24.7421" x2="17.9824" y2="7.0944" gradientUnits="userSpaceOnUse">
<stop stop-color="white"/>
<stop offset="0.15625" stop-color="white" stop-opacity="0"/>
<stop offset="1" stop-color="white" stop-opacity="0"/>
</linearGradient>
<linearGradient id="paint2_linear_4693_65588" x1="17.7784" y1="21.7421" x2="17.9824" y2="4.0944" gradientUnits="userSpaceOnUse">
<stop stop-color="white"/>
<stop offset="0.15625" stop-color="white" stop-opacity="0"/>
<stop offset="1" stop-color="white" stop-opacity="0"/>
</linearGradient>
<linearGradient id="paint3_linear_4693_65588" x1="17.7784" y1="18.7421" x2="17.9824" y2="1.0944" gradientUnits="userSpaceOnUse">
<stop stop-color="white"/>
<stop offset="0.15625" stop-color="white" stop-opacity="0"/>
<stop offset="1" stop-color="white" stop-opacity="0"/>
</linearGradient>
</defs>
</svg>
