<svg width="24" height="24" viewBox="0 0 24 24" fill="none" xmlns="http://www.w3.org/2000/svg">
<rect width="24" height="24" fill="white"/>
<g clip-path="url(#clip0_7_9261)">
<path fill-rule="evenodd" clip-rule="evenodd" d="M8.08911 6.23571C12.5547 1.81016 17.9538 0.662414 20.1065 3.69115C22.2592 6.71989 20.3747 12.7913 15.9091 17.2186C11.4435 21.6459 6.04267 22.7919 3.89173 19.7631C1.74078 16.7344 3.62351 10.6682 8.08911 6.23571Z" fill="#F99D27"/>
<path fill-rule="evenodd" clip-rule="evenodd" d="M11.0447 3.87576C10.5246 4.26301 10.0318 4.68548 9.56952 5.14021C5.65602 8.99449 4.03106 14.2926 5.95733 16.9382C7.94456 19.5872 12.7602 18.6241 16.7347 14.7106C18.8717 12.6328 20.3173 10.1945 20.9147 7.9373C21.0888 6.28099 20.8537 4.80232 20.1013 3.69115C18.3858 1.3434 14.7126 1.52453 11.0447 3.86531" fill="#B02A30"/>
<path fill-rule="evenodd" clip-rule="evenodd" d="M13.2583 19.4026C11.1684 20.9701 9.00697 21.7504 6.89956 21.4247C7.78433 21.47 8.4984 20.4894 9.0836 19.171C9.60868 17.9528 10.0226 16.6896 10.3202 15.3968C10.7364 13.5419 10.7678 12.2148 10.557 11.9309C10.2087 11.4589 9.38491 11.5826 8.46705 12.1051C8.02816 12.3489 7.44296 12.1869 8.1344 11.3492C8.82583 10.5115 11.6177 8.4685 12.6174 8.15152C13.7147 7.83454 14.9686 8.26647 14.5454 9.46996C14.2441 10.3408 10.3951 20.4424 13.2601 19.3974M16.4073 3.73295C16.9298 4.25544 16.611 5.391 15.7245 6.28796C14.838 7.18491 13.6659 7.49144 13.1626 6.98462C12.6244 6.46212 12.9431 5.31611 13.8366 4.41219C14.73 3.50827 15.9022 3.23309 16.4055 3.73817L16.4073 3.73295Z" fill="white"/>
</g>
<defs>
<clipPath id="clip0_7_9261">
<rect width="18" height="19.4978" fill="white" transform="translate(3 2)"/>
</clipPath>
</defs>
</svg>
