<svg width="24" height="24" viewBox="0 0 24 24" fill="none" xmlns="http://www.w3.org/2000/svg">
<rect width="24" height="24" fill="white"/>
<g clip-path="url(#clip0_7_9257)">
<path fill-rule="evenodd" clip-rule="evenodd" d="M12.7961 12.6895C13.2097 13.1445 13.5302 13.6759 13.7396 14.254L14.0865 13.8724L15.318 15.0657C16.9865 13.5255 15.096 11.1563 12.7822 12.6895H12.7961ZM9.92388 12.2004L11.4571 13.1127L11.0062 13.5151L9.65331 13.477C9.77472 15.4889 12.8724 15.5583 12.7753 12.7173C11.8004 12.7601 10.8283 12.5835 9.93081 12.2004H9.92388ZM12.7684 12.6375L12.7996 12.6757C17.1877 6.29987 24.9649 12.2941 18.6273 18.1704L19.8171 19.2839L19.4078 19.6863L13.9166 19.2457L13.7917 16.2868C12.7337 19.5406 6.50703 20.9281 4.98073 14.3893L3.34342 14.7084L5.8861 10.4105L6.25381 10.0116L9.02891 11.6662C5.65023 9.05762 8.19985 2.64714 15.3908 5.23492L15.592 4.36077L15.9632 4.01388L18.773 8.77318L18.3636 9.21372L13.0771 11.2014L13.6911 9.52939C11.4398 8.69686 10.4546 11.2395 12.751 12.7138C12.7527 12.6884 12.7527 12.6629 12.751 12.6375H12.7684Z" fill="white"/>
<path fill-rule="evenodd" clip-rule="evenodd" d="M12.47 13.1266C17.0836 18.9335 6.72558 23.5818 4.67894 14.861L3 15.1386L5.86876 10.4036L10.9888 13.5464L9.22663 13.8932C9.67412 16.0786 12.3729 15.763 12.4631 13.1093L12.4215 13.1336C4.30777 13.2931 6.02833 2.4286 15.0856 5.65119L15.5365 4.41974L18.3116 9.19638L12.7406 11.6246L13.3962 9.95606C11.0998 9.11659 10.1147 11.6662 12.4111 13.137C16.5078 6.45249 24.7048 12.7416 18.3082 18.6317L19.2933 19.6724L13.5974 19.7105L13.7396 14.3234L15.0127 15.5583C16.7194 13.9765 14.7907 11.6107 12.477 13.1301L12.47 13.1266Z" fill="#F2B757"/>
</g>
<defs>
<clipPath id="clip0_7_9257">
<rect width="18" height="15.7209" fill="white" transform="translate(3 4)"/>
</clipPath>
</defs>
</svg>
