<svg width="24" height="24" viewBox="0 0 24 24" fill="none" xmlns="http://www.w3.org/2000/svg">
<rect width="24" height="24" fill="white"/>
<g clip-path="url(#clip0_7_9199)">
<path fill-rule="evenodd" clip-rule="evenodd" d="M12.0006 4C17.5277 4 21.9965 7.60322 21.9965 12.0485C21.9965 16.4937 17.5195 20.0957 12.0006 20.0957C6.48168 20.0957 2.0047 16.4937 2.0047 12.0485C2.0047 7.60322 6.48286 4 12.0006 4Z" fill="white"/>
<path fill-rule="evenodd" clip-rule="evenodd" d="M11.1986 20.0957C8.24096 19.9229 5.62204 18.6787 3.94626 16.8559H7.18727C8.21195 17.9354 9.54905 19.0154 11.1986 20.0957Z" fill="#1C9ECD"/>
<path fill-rule="evenodd" clip-rule="evenodd" d="M12.2252 16.8559H16.2753C15.2498 17.9237 13.8998 18.9907 12.2252 20.0569V16.8559Z" fill="#1C9ECD"/>
<path fill-rule="evenodd" clip-rule="evenodd" d="M11.8054 20.0569C10.1449 18.9903 8.79367 17.9237 7.76586 16.8559H11.8054V20.0569Z" fill="#1C9ECD"/>
<path fill-rule="evenodd" clip-rule="evenodd" d="M20.0279 16.8559C18.3556 18.6787 15.7485 19.9134 12.805 20.0969C14.4513 19.015 15.8026 17.9366 16.8163 16.8559H20.0279Z" fill="#1C9ECD"/>
<path fill-rule="evenodd" clip-rule="evenodd" d="M2.00118 11.8462C2.04234 10.3045 2.63739 8.87446 3.60993 7.66084H6.70042C5.50444 9.04968 4.90351 10.4432 4.87764 11.8462H2.00118Z" fill="#1C9ECD"/>
<path fill-rule="evenodd" clip-rule="evenodd" d="M6.84977 16.4361H3.60993C2.63739 15.2224 2.04234 13.803 2.00118 12.2648H4.89175C4.98583 13.656 5.6338 15.046 6.84977 16.4361Z" fill="#1C9ECD"/>
<path fill-rule="evenodd" clip-rule="evenodd" d="M22 12.2648C21.96 13.803 21.3661 15.2224 20.3948 16.4372H17.1937C18.3944 15.046 19.0577 13.6548 19.1376 12.2648H22Z" fill="#1C9ECD"/>
<path fill-rule="evenodd" clip-rule="evenodd" d="M20.3936 7.66084C21.3661 8.87446 21.96 10.3056 22 11.8485H19.1518C19.1247 10.4373 18.5308 9.05086 17.3419 7.66084H20.3936Z" fill="#1C9ECD"/>
<path fill-rule="evenodd" clip-rule="evenodd" d="M12.8191 4C15.759 4.19169 18.3556 5.41942 20.0279 7.24219H16.9633C15.9378 6.16146 14.5595 5.08426 12.8191 4Z" fill="#1C9ECD"/>
<path fill-rule="evenodd" clip-rule="evenodd" d="M7.07909 7.24219H3.97566C5.66437 5.41824 8.27036 4.17757 11.2291 4C9.47378 5.08034 8.09161 6.16107 7.08261 7.24219" fill="#1C9ECD"/>
<path fill-rule="evenodd" clip-rule="evenodd" d="M11.8054 7.24219H7.64708C8.67137 6.17674 10.0508 5.10777 11.8054 4.04115V7.24219Z" fill="#1C9ECD"/>
<path fill-rule="evenodd" clip-rule="evenodd" d="M12.2252 4.04115C13.9813 5.10895 15.3717 6.17596 16.3964 7.24219H12.2252V4.04115Z" fill="#1C9ECD"/>
<path fill-rule="evenodd" clip-rule="evenodd" d="M15.0299 14.8449L15.0687 14.9108L15.084 15.0202V15.1378C15.0758 15.4459 14.9253 15.5729 14.6383 15.6505H14.5301L14.516 15.6376L14.489 15.6234L14.4631 15.5976L14.449 15.5694V15.5505L14.4349 15.5117V15.4694L14.449 15.4435V15.4165L14.4749 15.3883L14.489 15.3624L14.5442 15.2953L14.5831 15.2801L14.6383 15.2683L14.6924 15.2283L14.7595 15.186L14.7724 15.1742L14.7853 15.146L14.7994 15.1072L14.8135 15.0649L14.7994 15.0249L14.7853 14.9555L14.7595 14.9049L14.7183 14.8226L14.6007 14.6344C14.4172 14.2287 14.6865 14.2287 14.5489 13.8759L14.509 13.7689L14.4278 13.6513L14.2796 13.4349L14.1562 13.2585L14.1162 13.1774L14.0762 13.1115C13.9586 12.7893 14.095 12.4483 14.1421 12.1261V11.8332L14.1291 11.7156V11.6874L14.1421 11.6463L14.1562 11.6345L14.1703 11.6204H14.1832L14.1973 11.6345L14.2103 11.6463L14.2232 11.6604L14.2514 11.7545V11.8227L14.2796 11.9179V12.0532L14.2644 12.2131C14.1726 12.6835 14.1644 12.9916 14.5348 13.3232L14.6007 13.375L14.656 13.4173C14.9523 13.7372 14.8488 13.9006 14.8453 14.2664V14.3746L14.8853 14.4922L14.9135 14.5992L14.9676 14.7168L15.0299 14.8449Z" fill="white"/>
<path fill-rule="evenodd" clip-rule="evenodd" d="M14.6959 12.5753V12.6564L14.7089 12.727C14.7571 13.1974 15.2416 13.3797 15.518 13.6948L15.5732 13.7901L15.6003 13.8983C15.6861 14.1476 15.6167 14.7038 15.2628 14.6803L15.2345 14.6674L15.2216 14.6568L15.2345 14.6427L15.2498 14.6286C15.5274 14.3522 15.418 13.9441 15.2216 13.656L15.1416 13.5619L15.0464 13.4667L14.9382 13.3867C14.8392 13.2934 14.7649 13.1771 14.7218 13.048L14.6959 12.9669L14.6701 12.8999C14.6353 12.7456 14.6258 12.5868 14.6419 12.4295L14.6548 12.4024L14.6701 12.3907H14.6818L14.6959 12.4165V12.4436L14.7089 12.4988L14.6959 12.5753Z" fill="white"/>
<path fill-rule="evenodd" clip-rule="evenodd" d="M13.7105 13.4526L13.6834 13.5078V13.5761C13.5658 14.0018 13.9492 14.2922 14.1033 14.6415L14.115 14.7356V14.8285C14.0974 15.0637 13.9069 15.5247 13.5882 15.4165L13.5764 15.4035L13.5611 15.3883L13.5764 15.3765V15.3624H13.6023L13.6423 15.3353C13.9551 15.1483 13.9351 14.7297 13.8034 14.4322L13.7505 14.3252L13.6964 14.2005L13.6576 14.1476L13.6282 14.0806L13.6152 14.0123L13.6023 13.9324V13.6419L13.6282 13.5243L13.6576 13.4173L13.6834 13.3373L13.6964 13.295L13.7234 13.2821H13.7505V13.3373L13.7387 13.3914L13.7105 13.4526Z" fill="white"/>
<path d="M13.7105 13.4526L13.6834 13.5078V13.5761C13.5658 14.0018 13.9492 14.2922 14.1033 14.6415L14.115 14.7356V14.8285C14.0974 15.0637 13.9069 15.5247 13.5882 15.4165L13.5764 15.4035L13.5611 15.3883L13.5764 15.3765V15.3624H13.6023L13.6423 15.3353C13.9551 15.1483 13.9351 14.7297 13.8034 14.4322L13.7505 14.3252L13.6964 14.2005L13.6576 14.1476L13.6282 14.0806L13.6152 14.0123L13.6023 13.9324V13.6419L13.6282 13.5243L13.6576 13.4173L13.6834 13.3373L13.6964 13.295L13.7234 13.2821H13.7505V13.3373L13.7387 13.3914L13.7105 13.4526Z" stroke="white" stroke-width="0.42" stroke-miterlimit="2.41"/>
<path fill-rule="evenodd" clip-rule="evenodd" d="M15.4509 13.1033L15.291 12.8611L15.2216 12.7646L15.1957 12.6976C15.1804 12.4271 15.2263 12.5353 15.2498 12.373V12.346L15.2216 12.2919C15.1346 12.1272 14.8476 11.9391 14.7512 11.765L14.6971 11.6474L14.656 11.5298L14.6289 11.4616V11.3875L14.616 11.3205V11.2535L14.6289 11.1841L14.643 11.13L14.6713 11.063L14.6971 11.0218L14.7512 10.9842L14.8053 10.943L14.8453 10.9124H14.8853L14.9511 10.8878L14.9794 10.8748H15.0076L15.0299 10.8466L15.057 10.8207L15.084 10.7666L15.1252 10.669L15.1369 10.6443L15.1511 10.6149H15.1781L15.2051 10.602L15.3145 10.6149V10.5902L15.2992 10.5479C15.0511 10.1069 14.8535 9.6071 14.8947 9.09085V8.98266L14.9206 8.86506L14.9464 8.74746L14.9899 8.63927L15.0299 8.52167L15.097 8.41348L15.164 8.30529L15.2463 8.18769L15.3145 8.0795L15.3663 7.98542L15.3815 7.94544L15.3933 7.90428V7.86429L15.3815 7.83724L15.3663 7.82196L15.3404 7.80902H15.3263L15.2992 7.82196H15.2651L15.1699 7.87605L15.0899 7.93015L15.0229 7.98542L14.9523 8.05363L14.8735 8.10772L14.8194 8.17358L14.7665 8.24061L14.7112 8.30882L14.6724 8.39113L14.5748 8.53696C14.4184 8.9415 14.3102 9.38955 14.3867 9.82113V9.88934H14.3737L14.3596 9.87641L14.2526 9.78233L14.135 9.70001C13.3706 9.26842 12.3134 9.6071 12.4627 10.6173L12.4733 10.6596L12.5168 10.7525L12.5557 10.836L12.5827 10.8889V10.9136L12.5698 10.9418L12.5404 10.9983L12.5027 11.0218L12.4475 11.0642L12.3934 11.09L12.3393 11.1182L12.2464 11.1441L12.2181 11.1606H12.2052L12.1911 11.1712H12.177L12.0841 11.1982L11.9665 11.2253L11.8583 11.2394H11.7407L11.6231 11.2535L11.4879 11.2394L11.3526 11.2253L11.1974 11.1994L10.914 11.1571L10.6188 11.1041L10.0238 10.9548L9.72623 10.8995L9.43106 10.8337L9.13118 10.7937L8.98301 10.7796C7.68942 10.5714 7.02499 11.4193 7.14612 12.6423L7.24019 13.2656L7.32251 13.7772L7.34838 14.0123C7.44364 14.5392 7.24372 15.0096 7.24019 15.5411V15.7469L7.25313 15.9186C7.26842 16.075 7.34133 16.3385 7.50949 16.1232L7.53654 16.0703L7.55183 15.9998L7.57888 15.9186L7.60592 15.7305L7.61768 15.5705V15.4882L7.64708 15.2048C7.80937 14.0288 6.7404 12.0567 7.86229 11.357L7.9552 11.3017L8.09161 11.2629L8.25389 11.2347C8.621 11.1738 8.99768 11.25 9.31228 11.4487L9.44635 11.5322L9.59687 11.6251C10.1178 11.992 10.7975 12.0567 11.4185 12.072H11.6337L11.8371 12.059L12.0265 12.0461L12.184 12.0226L12.3322 11.9944L12.4663 11.9685C12.6344 11.9015 12.9096 11.8144 13.0895 11.8862L13.1683 11.9403L13.2518 11.9944L13.3189 12.0626L13.3718 12.1296L13.4271 12.2237L13.4541 12.3036L13.4929 12.3848L13.5211 12.4671L13.547 12.5506L13.5611 12.6294V12.7376L13.547 12.8175L13.5341 12.8999L13.4929 13.0469L13.4682 13.061L13.4388 13.0868C13.2624 13.2174 13.1389 13.5972 13.1295 13.8171L13.1013 13.9806V14.0465L13.0754 14.1005L13.0601 14.1546L13.0343 14.1946L13.0072 14.2381L12.9672 14.2487L12.9261 14.2758L12.9002 14.3052L12.8191 14.3322H12.7368L12.6697 14.3452H12.6027L12.5333 14.3322H12.4557L12.3181 14.2911L12.2111 14.2487L12.184 14.2381L12.1981 14.4251L12.2393 14.5756L12.2675 14.6556L12.3063 14.7085L12.3322 14.7638L12.3593 14.7897L12.3734 14.8155L12.3863 14.8438L12.4016 14.9379L12.4286 15.086C12.4827 15.3589 12.4451 15.694 12.4557 15.9774L12.4404 16.095L12.4286 16.1621L12.4557 16.1773L12.5333 16.2173L12.5627 16.242L12.6027 16.2702L12.6168 16.3126L12.6297 16.3396V16.3526L12.6556 16.3784H13.3318V16.3396L13.3189 16.2973L13.3048 16.2561L13.2777 16.2314L13.2377 16.1621L13.1836 16.1091L13.0754 16.0268L13.0343 16.0009L13.0213 15.9727L13.0072 15.9598L12.9943 15.9327L12.9814 15.9045V15.8516L13.0072 15.7857L13.0895 15.7975H13.1566L13.2918 15.8116H13.5341L13.547 15.9857L13.5341 16.1091V16.1903L13.5611 16.2009C13.6211 16.2503 13.7116 16.2879 13.7105 16.3784L13.7234 16.4043H14.3972V16.3526L14.3843 16.2973L14.3573 16.2561L14.3161 16.2173L14.2502 16.135L14.182 16.0821L14.155 16.0562L14.1279 16.0139L14.088 15.9727L14.075 15.9327V15.8398L14.1032 15.7575L14.2208 15.8516L14.302 15.8939L14.329 15.9045C14.5983 15.968 14.6607 15.9774 14.917 15.9045L15.0252 15.8516L15.1334 15.7857C15.3569 15.6411 15.3616 15.4259 15.4556 15.1907L15.4839 15.1507L15.4968 15.1225L15.5238 15.0954C16.1412 14.8485 16.2824 14.1546 15.8766 13.6254L15.8084 13.5278L15.6908 13.3679L15.4509 13.1033Z" fill="#98272B"/>
<path fill-rule="evenodd" clip-rule="evenodd" d="M15.318 11.5886L15.3569 11.6322L15.3827 11.6698L15.3945 11.7109V11.925L15.4215 11.885L15.4486 11.8321L15.4897 11.778L15.5168 11.7109L15.5297 11.631V11.6016L15.5168 11.5616V11.5357L15.5039 11.5063L15.4768 11.4816C15.4204 11.4628 15.2169 11.3252 15.1522 11.4122V11.4663L15.1393 11.5228L15.318 11.5886Z" fill="#98272B"/>
<path d="M15.318 11.5886L15.3569 11.6322L15.3827 11.6698L15.3945 11.7109V11.925L15.4215 11.885L15.4486 11.8321L15.4897 11.778L15.5168 11.7109L15.5297 11.631V11.6016L15.5168 11.5616V11.5357L15.5039 11.5063L15.4768 11.4816C15.4204 11.4628 15.2169 11.3252 15.1522 11.4122V11.4663L15.1393 11.5228L15.318 11.5886Z" stroke="#9A292D" stroke-width="0.21" stroke-miterlimit="2.41"/>
<path fill-rule="evenodd" clip-rule="evenodd" d="M15.0605 14.8979L15.0875 14.9378L15.1005 15.0061L15.1134 15.059L15.1287 15.1131V15.1801L15.1134 15.2354L15.1005 15.2895L15.0875 15.3565L15.0605 15.4247L15.0193 15.5058L14.9664 15.5717L14.8982 15.6411C14.7453 15.687 14.8018 15.7434 14.6007 15.7363L14.5607 15.7199L14.5195 15.694L14.4937 15.667L14.4666 15.6258L14.4525 15.5717L14.4666 15.5329L14.4796 15.4906L14.4937 15.4518L14.5195 15.4106L14.5607 15.3706L14.6148 15.3436L14.7089 15.2895L14.75 15.2742L14.7759 15.2354L14.803 15.2083L14.8171 15.1683L14.8312 15.1401V15.059L14.8171 15.019L14.7889 14.9378L14.75 14.8567L14.6701 14.7097L14.6277 14.6556C14.5919 14.5949 14.5686 14.5276 14.5591 14.4577C14.5496 14.3879 14.5542 14.3168 14.5725 14.2487L14.6007 14.1688L14.6148 14.1276C14.6198 13.9796 14.5788 13.8337 14.4972 13.7101L14.4302 13.629L14.3243 13.4796L14.2067 13.3044C13.8304 12.8211 14.2303 12.2778 14.1526 11.631L14.1667 11.6169L14.1797 11.6028L14.1938 11.5886L14.2197 11.6169L14.2338 11.6427C14.456 12.1543 13.9904 12.7082 14.409 13.1833L14.4502 13.2244L14.5313 13.3044C15.1311 13.7842 14.7547 14.0617 14.8959 14.5063L14.9358 14.6415L14.9911 14.7591L15.0605 14.8979Z" fill="white"/>
<path fill-rule="evenodd" clip-rule="evenodd" d="M14.803 12.5753V12.7105L14.8171 12.7787C15.0064 13.3961 15.4192 13.3526 15.6144 13.6948L15.6673 13.7901L15.7085 13.8983C15.7767 14.1464 15.7367 14.6497 15.3968 14.6803H15.371L15.3439 14.6674L15.3298 14.6568V14.6427C15.5732 14.4569 15.5532 14.1276 15.4474 13.8712L15.3933 13.7642L15.3145 13.656C14.9276 13.1962 14.7653 13.2668 14.7265 12.5494V12.413L14.7406 12.3871H14.7665L14.7794 12.3989L14.7936 12.4259V12.5753H14.803Z" fill="white"/>
<path fill-rule="evenodd" clip-rule="evenodd" d="M17.0044 8.32175L16.9774 8.26766L16.9362 8.18769L16.9103 8.17358L16.8974 8.14653H16.8551L16.8433 8.15947V8.17358L16.8292 8.2265L16.8433 8.2947V8.37702L16.8692 8.55342L16.8974 8.71453L16.9103 8.86271V9.11789L16.8974 9.24137L16.8692 9.34839L16.8551 9.45658L16.8433 9.53655C16.7805 9.72142 16.6813 9.89187 16.5516 10.0379C16.422 10.1839 16.2645 10.3025 16.0883 10.3868L15.9249 10.4562L15.7496 10.5103L15.9249 10.6584L16.0754 10.776C16.3176 11.0406 16.5811 11.4816 16.2765 11.8015L16.1824 11.9379L16.1412 12.0179L16.1012 12.1014L16.0754 12.1931L16.0472 12.2884L16.006 12.493L15.9778 12.68L15.9519 12.7764L15.939 12.8152L15.9237 12.8434L15.9107 12.8575L15.8966 12.8693L15.8578 12.8846H15.8296L15.7884 12.8693H15.7743L15.7485 12.8846V12.8987C15.7567 12.9751 15.8002 13.1692 15.8966 13.168H15.9107V13.1539H15.9237L15.9519 13.1151L15.9637 13.0457L16.006 12.9281L16.033 12.8105L16.0742 12.5659L16.1001 12.3377V12.3083L16.1401 12.2296L16.1942 12.1613L16.2494 12.0931L16.3035 12.0402L16.4211 11.9309L16.5011 11.838L16.5693 11.7556L16.6363 11.6616L16.6634 11.6063L16.6904 11.5534L16.7057 11.4981V11.4605L16.6904 11.4075L16.6775 11.3382L16.6363 11.1618L16.5422 10.8783L16.6493 10.7455L16.6634 10.7184C16.8668 10.4479 17.062 10.2104 17.1632 9.87876L17.2031 9.77174L17.2302 9.65414C17.2893 9.38173 17.28 9.09891 17.2031 8.83095L17.1632 8.72394L17.0961 8.53461L17.0044 8.32175Z" fill="#98272B"/>
<path d="M17.0044 8.32175L16.9774 8.26766L16.9362 8.18769L16.9103 8.17358L16.8974 8.14653H16.8551L16.8433 8.15947V8.17358L16.8292 8.2265L16.8433 8.2947V8.37702L16.8692 8.55342L16.8974 8.71453L16.9103 8.86271V9.11789L16.8974 9.24137L16.8692 9.34839L16.8551 9.45658L16.8433 9.53655C16.7805 9.72142 16.6813 9.89187 16.5516 10.0379C16.422 10.1839 16.2645 10.3025 16.0883 10.3868L15.9249 10.4562L15.7496 10.5103L15.9249 10.6584L16.0754 10.776C16.3176 11.0406 16.5811 11.4816 16.2765 11.8015L16.1824 11.9379L16.1412 12.0179L16.1012 12.1014L16.0754 12.1931L16.0472 12.2884L16.006 12.493L15.9778 12.68L15.9519 12.7764L15.939 12.8152L15.9237 12.8434L15.9107 12.8575L15.8966 12.8693L15.8578 12.8846H15.8296L15.7884 12.8693H15.7743L15.7485 12.8846V12.8987C15.7567 12.9751 15.8002 13.1692 15.8966 13.168H15.9107V13.1539H15.9237L15.9519 13.1151L15.9637 13.0457L16.006 12.9281L16.033 12.8105L16.0742 12.5659L16.1001 12.3377V12.3083L16.1401 12.2296L16.1942 12.1613L16.2494 12.0931L16.3035 12.0402L16.4211 11.9309L16.5011 11.838L16.5693 11.7556L16.6363 11.6616L16.6634 11.6063L16.6904 11.5534L16.7057 11.4981V11.4605L16.6904 11.4075L16.6775 11.3382L16.6363 11.1618L16.5422 10.8783L16.6493 10.7455L16.6634 10.7184C16.9221 10.3809 17.0714 10.188 17.2031 9.77174L17.2302 9.65414L17.2443 9.54595C17.2919 9.26926 17.2638 8.98485 17.1632 8.72276L17.0961 8.53343L17.0044 8.32175Z" stroke="#9A292D" stroke-width="0.63" stroke-miterlimit="2.41"/>
<path fill-rule="evenodd" clip-rule="evenodd" d="M13.7916 13.4396L13.7646 13.5325L13.7505 13.629V13.7242C13.7622 14.164 14.0927 14.3334 14.1962 14.7097V14.8026C14.1962 15.0378 14.0597 15.3906 13.7916 15.4376H13.7105L13.6834 15.4247L13.6576 15.3977V15.3824L13.6693 15.3706L13.6834 15.3577L13.7387 15.3295L13.7763 15.3036L13.8034 15.2742L13.8457 15.2365L13.8716 15.2071L13.8986 15.1683L13.9398 15.086L13.9657 14.9919L13.981 14.9096V14.7097C13.8634 14.2969 13.5305 13.9194 13.7234 13.4679L13.7646 13.3315L13.7916 13.2903V13.2774L13.8175 13.2644H13.8316L13.8457 13.2903L13.8316 13.3056V13.3456L13.8034 13.4138L13.7916 13.4396Z" fill="white"/>
<path d="M13.7916 13.4396L13.7646 13.5325L13.7505 13.629V13.7242C13.7622 14.164 14.0927 14.3334 14.1962 14.7097V14.8026C14.1962 15.0378 14.0597 15.3906 13.7916 15.4376H13.7105L13.6834 15.4247L13.6576 15.3977V15.3824L13.6693 15.3706L13.6834 15.3577L13.7387 15.3295L13.7763 15.3036L13.8034 15.2742L13.8457 15.2365L13.8716 15.2071L13.8986 15.1683L13.9398 15.086L13.9657 14.9919L13.981 14.9096V14.7097C13.8634 14.2969 13.5305 13.9194 13.7234 13.4679L13.7646 13.3315L13.7916 13.2903V13.2774L13.8175 13.2644H13.8316L13.8457 13.2903L13.8316 13.3056V13.3456L13.8034 13.4138L13.7916 13.4396Z" stroke="white" stroke-width="0.42" stroke-miterlimit="2.41"/>
<path fill-rule="evenodd" clip-rule="evenodd" d="M9.90263 15.9374L9.84736 15.8692L9.80738 15.8175L9.7815 15.7493C9.75205 15.6782 9.73779 15.6017 9.73961 15.5247C9.74143 15.4478 9.75931 15.3721 9.79209 15.3024L9.82149 15.2354L9.84736 15.1954L9.88852 15.1554L9.92968 15.1119L9.96966 15.0872L10.0108 15.059L10.0779 15.019L10.092 15.0061L10.119 14.992L10.1319 14.9496L10.1449 14.9096V14.872L10.119 14.8156L10.0779 14.7638C9.94262 14.6956 9.97907 14.6827 9.79209 14.7497L9.71213 14.8156L9.61804 14.9096C9.11707 15.5658 9.29464 15.3048 9.29464 15.9786V16.0456L9.28171 16.1127V16.1268L9.30876 16.1409L9.38873 16.1809L9.43106 16.2067L9.45811 16.235L9.48398 16.2608V16.3032L9.49809 16.329L9.50985 16.3432H10.2154L10.2025 16.3173C10.1806 16.204 10.1178 16.1027 10.0261 16.0327L9.97201 15.9904L9.90263 15.9374Z" fill="#98272B"/>
<path fill-rule="evenodd" clip-rule="evenodd" d="M11.1292 14.3452L11.1033 14.3722L11.0363 14.4263C11.0053 14.4568 10.9685 14.4809 10.9282 14.497C10.8878 14.5132 10.8446 14.5211 10.8011 14.5204L10.7223 14.5063L10.6529 14.4663C10.5008 14.4066 10.3432 14.3617 10.1825 14.3322L10.0332 14.264L9.80385 14.1817L9.85794 13.9935L9.8991 13.8595L9.93791 13.7254C10.072 13.255 9.54513 12.8575 9.19704 12.6553L9.14294 12.6294L9.0912 12.6106C8.70547 12.4824 8.69725 12.9857 8.80779 13.2197L8.86188 13.382L8.90304 13.5278L8.93009 13.6643L8.94185 13.7983C8.94755 13.99 8.90793 14.1804 8.82619 14.3538C8.74445 14.5273 8.62291 14.6791 8.47145 14.7967L8.43029 14.812L8.34915 14.8238L8.26801 14.8391C8.15041 14.8743 8.18452 14.8108 8.06574 14.9214L8.03751 14.9602L8.02575 15.0014C8.00385 15.236 8.00385 15.4723 8.02575 15.7069L8.03751 15.948V16.1244L8.02575 16.2044L8.06574 16.2185C8.39031 16.382 8.07985 16.4431 8.47145 16.4231L8.95831 16.4067L8.94302 16.3549L8.93127 16.3149L8.90421 16.2585L8.86306 16.2185L8.7972 16.1385L8.72781 16.0574L8.61963 15.9633L8.56554 15.9069L8.55259 15.8681L8.52673 15.8151L8.51144 15.7599V15.6423L8.53848 15.6152L8.55259 15.5599L8.56554 15.507L8.64667 15.3718L8.67255 15.3189L8.71606 15.2636L8.7431 15.2365L8.76898 15.2095L8.94302 15.1695L9.07944 15.1025L9.21585 15.0343L9.32169 14.979L9.41577 14.9002L9.49809 14.8297L9.63333 14.6956L9.68625 14.5886L9.74152 14.5074L9.76739 14.4675L9.79326 14.4404L9.83442 14.4134L9.88969 14.3992H9.93085L10.0931 14.4675L10.3495 14.5745L10.4847 14.6297L10.5506 14.658L10.6059 14.6815L10.6588 14.725L10.7141 14.7497H10.7693L10.807 14.7662H10.8481L10.8752 14.7497L10.9022 14.7368L10.9293 14.7109L10.9704 14.658L11.0516 14.5745L11.1304 14.4675L11.2115 14.3499L11.1292 14.3452Z" fill="#98272B"/>
</g>
<defs>
<clipPath id="clip0_7_9199">
<rect width="20" height="16.0969" fill="white" transform="translate(2 4)"/>
</clipPath>
</defs>
</svg>
