<svg width="20" height="20" viewBox="0 0 20 20" fill="none" xmlns="http://www.w3.org/2000/svg">
<g id="Interface Lock">
<g id="Group">
<path id="Vector" d="M15.7126 7.85742H4.28404C3.49506 7.85742 2.85547 8.49702 2.85547 9.28599V17.8574C2.85547 18.6464 3.49506 19.286 4.28404 19.286H15.7126C16.5016 19.286 17.1412 18.6464 17.1412 17.8574V9.28599C17.1412 8.49702 16.5016 7.85742 15.7126 7.85742Z" stroke="#1F2C35" stroke-width="1.3" stroke-linecap="round" stroke-linejoin="round"/>
<path id="Vector_2" d="M15 7.8577V5.71484C15 4.38876 14.4732 3.11699 13.5355 2.17931C12.5979 1.24163 11.3261 0.714844 10 0.714844C8.67392 0.714844 7.40215 1.24163 6.46447 2.17931C5.52678 3.11699 5 4.38876 5 5.71484V7.8577" stroke="#1F2C35" stroke-width="1.3" stroke-linecap="round" stroke-linejoin="round"/>
<path id="Vector_3" d="M9.99944 14.286C10.3939 14.286 10.7137 13.9662 10.7137 13.5717C10.7137 13.1772 10.3939 12.8574 9.99944 12.8574C9.60495 12.8574 9.28516 13.1772 9.28516 13.5717C9.28516 13.9662 9.60495 14.286 9.99944 14.286Z" stroke="#1F2C35" stroke-width="1.3" stroke-linecap="round" stroke-linejoin="round"/>
</g>
</g>
</svg>
