<svg width="24" height="24" viewBox="0 0 24 24" fill="none" xmlns="http://www.w3.org/2000/svg">
<rect width="24" height="24" fill="white"/>
<g clip-path="url(#clip0_7_9164)">
<path fill-rule="evenodd" clip-rule="evenodd" d="M11.9948 20C6.48872 20 2 16.4098 2 12C2 7.59026 6.48872 4 11.9948 4C17.5008 4 22 7.59026 22 12C22 16.4098 17.5008 20 11.9948 20Z" fill="#004A8F"/>
<path fill-rule="evenodd" clip-rule="evenodd" d="M18.4132 12.7805L19.5249 12.8293C18.8642 17.1415 14.4698 17.4537 12.2569 13.2781L12.5401 12.8293C14.8369 14.1854 17.5218 14.6927 18.4132 12.7805Z" fill="white"/>
<path fill-rule="evenodd" clip-rule="evenodd" d="M10.8516 6.53659L13.075 5.86342L13.1694 17.6L10.7467 18.361L10.8516 6.53659Z" fill="#ED1C24"/>
<path fill-rule="evenodd" clip-rule="evenodd" d="M18.4657 11.2293H19.5144C19.1159 9.27805 18.0462 8.01951 15.9696 7.8439C14.2391 7.8439 12.7708 8.81951 11.5543 10.6439C10.7572 11.7756 9.45676 13.5707 7.91507 13.7659C7.54852 13.8597 7.16019 13.8495 6.79989 13.7367C6.43959 13.6238 6.12372 13.4135 5.89275 13.1326C5.66178 12.8517 5.52624 12.5131 5.5035 12.1601C5.48075 11.8071 5.57183 11.4557 5.76508 11.1512C6.08591 10.7694 6.50779 10.4716 6.98943 10.2869C7.47107 10.1022 7.99598 10.037 8.51285 10.0976C9.32577 10.1545 10.1144 10.3813 10.8201 10.761V9.09268C10.4353 8.74949 10.0095 8.44833 9.55115 8.19511C8.95124 7.89564 8.26162 7.7893 7.58992 7.89267C4.75825 8.46828 4.24438 10.6244 4.76877 13.4927C5.86997 16.8098 9.29943 17.0634 11.2711 14.9366C12.624 13.4244 15.9801 8.35122 18.4552 11.2293H18.4657Z" fill="white"/>
</g>
<defs>
<clipPath id="clip0_7_9164">
<rect width="20" height="16" fill="white" transform="translate(2 4)"/>
</clipPath>
</defs>
</svg>
