<svg width="18" height="18" viewBox="0 0 18 18" fill="none" xmlns="http://www.w3.org/2000/svg">
<g id="Lock 1" clip-path="url(#clip0_2301_17302)">
<path id="Vector" d="M14.0625 7.3125H3.9375C3.31618 7.3125 2.8125 7.81618 2.8125 8.4375V16.3125C2.8125 16.9338 3.31618 17.4375 3.9375 17.4375H14.0625C14.6838 17.4375 15.1875 16.9338 15.1875 16.3125V8.4375C15.1875 7.81618 14.6838 7.3125 14.0625 7.3125Z" stroke="#00A25B" stroke-width="1.5" stroke-linecap="round" stroke-linejoin="round"/>
<path id="Vector_2" d="M5.0625 7.3125V4.5C5.0625 3.45571 5.47734 2.45419 6.21577 1.71577C6.95419 0.977343 7.95571 0.5625 9 0.5625C10.0443 0.5625 11.0458 0.977343 11.7842 1.71577C12.5227 2.45419 12.9375 3.45571 12.9375 4.5V7.3125" stroke="#00A25B" stroke-width="1.5" stroke-linecap="round" stroke-linejoin="round"/>
<path id="Vector_3" d="M9 11.25V13.5" stroke="#00A25B" stroke-width="1.5" stroke-linecap="round" stroke-linejoin="round"/>
</g>
<defs>
<clipPath id="clip0_2301_17302">
<rect width="18" height="18" fill="white"/>
</clipPath>
</defs>
</svg>
