<svg width="24" height="24" viewBox="0 0 24 24" fill="none" xmlns="http://www.w3.org/2000/svg">
<rect width="24" height="24" fill="white"/>
<g clip-path="url(#clip0_7_9196)">
<path fill-rule="evenodd" clip-rule="evenodd" d="M16.5582 3.99998H21V20.871H16.5582V16.7231C12.6681 18.1407 9.02418 18.2695 5.6622 15.0171C4.26879 13.5845 3.49852 11.6399 3.82951 8.22872C3.86833 7.72958 3.6252 5.61321 3 4.26753H6.94529C8.78411 7.16255 6.37321 10.5567 9.20193 12.9137C13.043 15.3814 16.4019 12.4425 16.5572 9.76708L16.5582 3.99998ZM12.1451 5.81387C13.154 5.81519 14.1212 6.20736 14.8347 6.90442C15.5482 7.60148 15.9498 8.54656 15.9514 9.53248C15.9487 10.5176 15.5466 11.4616 14.8332 12.1576C14.1198 12.8536 13.1532 13.245 12.1451 13.2461C11.1367 13.2453 10.1697 12.8541 9.45589 12.158C8.74209 11.462 8.33964 10.5179 8.33666 9.53248C8.33855 8.54629 8.7405 7.60107 9.45439 6.90401C10.1683 6.20695 11.1359 5.81492 12.1451 5.81387Z" fill="#FBBC08"/>
</g>
<defs>
<clipPath id="clip0_7_9196">
<rect width="18" height="16.875" fill="white" transform="translate(3 4)"/>
</clipPath>
</defs>
</svg>
