<svg width="24" height="24" viewBox="0 0 24 24" fill="none" xmlns="http://www.w3.org/2000/svg">
<rect width="24" height="24" fill="white"/>
<g clip-path="url(#clip0_7_9289)">
<path fill-rule="evenodd" clip-rule="evenodd" d="M5 3H8.54945V4.51522V5.71881V13.8215V14.1009V19.2591L5 17.5182V3Z" fill="#1E398D"/>
<path fill-rule="evenodd" clip-rule="evenodd" d="M12.5384 6.48178C14.2085 6.60984 15.776 7.32024 16.9554 8.48359C18.1348 9.64693 18.8477 11.1858 18.9642 12.82C19.0807 14.4542 18.5932 16.075 17.5903 17.3872C16.5874 18.6993 15.136 19.6156 13.5002 19.9691C11.8645 20.3226 10.1534 20.0898 8.6785 19.3131C7.20358 18.5364 6.06297 17.2675 5.46443 15.7375C4.86589 14.2075 4.84923 12.5181 5.41748 10.9771C5.98573 9.43602 7.10109 8.14586 8.56042 7.3415V12.5105C8.50349 12.7719 8.47404 13.0384 8.47253 13.3057C8.472 13.9677 8.66567 14.6159 9.03056 15.1735C9.39545 15.7311 9.91624 16.1747 10.5312 16.4515C11.1461 16.7284 11.8293 16.8269 12.4998 16.7355C13.1702 16.644 13.7998 16.3664 14.3138 15.9356C14.8278 15.5048 15.2046 14.9388 15.3995 14.3049C15.5945 13.6709 15.5994 12.9956 15.4137 12.359C15.2279 11.7224 14.8594 11.1512 14.3517 10.7133C13.844 10.2754 13.2185 9.9891 12.5494 9.88836V6.48178H12.5384Z" fill="#1E398D"/>
<path fill-rule="evenodd" clip-rule="evenodd" d="M5 13.3057C5.00243 11.5596 5.68599 9.88025 6.91124 8.61018C8.13648 7.34011 9.81108 6.57505 11.5934 6.47106V9.86688C10.7451 9.98257 9.96977 10.3989 9.41469 11.0368C8.85961 11.6747 8.56344 12.4898 8.58243 13.3271V21H5V13.3057Z" fill="#ED1C24"/>
</g>
<defs>
<clipPath id="clip0_7_9289">
<rect width="14" height="18" fill="white" transform="translate(5 3)"/>
</clipPath>
</defs>
</svg>
