<svg width="24" height="24" viewBox="0 0 24 24" fill="none" xmlns="http://www.w3.org/2000/svg">
<rect width="24" height="24" fill="white"/>
<g clip-path="url(#clip0_7_9232)">
<path fill-rule="evenodd" clip-rule="evenodd" d="M11.9919 3.06599C14.283 3.08515 16.4788 3.99745 18.1231 5.61339C19.7675 7.22934 20.7341 9.42472 20.8221 11.7436C20.9102 14.0624 20.113 16.3266 18.596 18.0657C17.079 19.8047 14.9589 20.8852 12.676 21.0825V14.4831C13.2464 14.3179 13.7387 13.9496 14.0621 13.4459C14.3855 12.9422 14.5183 12.337 14.4359 11.742C14.3536 11.1469 14.0618 10.6021 13.6142 10.2078C13.1665 9.81353 12.5932 9.59641 12 9.59641C11.4068 9.59641 10.8336 9.81353 10.3859 10.2078C9.93828 10.6021 9.6464 11.1469 9.56408 11.742C9.48176 12.337 9.61455 12.9422 9.93796 13.4459C10.2614 13.9496 10.7536 14.3179 11.324 14.4831V21.0825C9.0422 20.8857 6.92288 19.8066 5.40573 18.0692C3.88858 16.3318 3.09008 14.0695 3.176 11.7517C3.26192 9.4339 4.22564 7.23857 5.86716 5.6213C7.50867 4.00402 9.70193 3.08897 11.9919 3.06599Z" fill="#00AEEF"/>
</g>
<defs>
<clipPath id="clip0_7_9232">
<rect width="18" height="18" fill="white" transform="translate(3 3)"/>
</clipPath>
</defs>
</svg>
