<svg width="40" height="40" viewBox="0 0 40 40" fill="none" xmlns="http://www.w3.org/2000/svg">
<g id="Group 1000003462">
<g id="Group 1000003556">
<path id="Vector" d="M0 20C0 25.3043 2.10714 30.3914 5.85786 34.1421C9.60859 37.8929 14.6957 40 20 40C25.3043 40 30.3914 37.8929 34.1421 34.1421C37.8929 30.3914 40 25.3043 40 20C40 14.6957 37.8929 9.60859 34.1421 5.85786C30.3914 2.10714 25.3043 0 20 0C14.6957 0 9.60859 2.10714 5.85786 5.85786C2.10714 9.60859 0 14.6957 0 20Z" fill="#00A25B" fill-opacity="0.05"/>
<path id="Vector_2" d="M6 20C6 23.713 7.475 27.274 10.1005 29.8995C12.726 32.525 16.287 34 20 34C23.713 34 27.274 32.525 29.8995 29.8995C32.525 27.274 34 23.713 34 20C34 16.287 32.525 12.726 29.8995 10.1005C27.274 7.475 23.713 6 20 6C16.287 6 12.726 7.475 10.1005 10.1005C7.475 12.726 6 16.287 6 20Z" fill="#00A25B" fill-opacity="0.1"/>
<path id="Vector_3" d="M10.3984 20.0004C10.3984 22.5465 11.4099 24.9883 13.2102 26.7886C15.0106 28.589 17.4524 29.6004 19.9984 29.6004C22.5445 29.6004 24.9863 28.589 26.7867 26.7886C28.587 24.9883 29.5984 22.5465 29.5984 20.0004C29.5984 17.4543 28.587 15.0125 26.7867 13.2122C24.9863 11.4118 22.5445 10.4004 19.9984 10.4004C17.4524 10.4004 15.0106 11.4118 13.2102 13.2122C11.4099 15.0125 10.3984 17.4543 10.3984 20.0004Z" fill="#00A25B"/>
<path id="Vector_4" d="M15.1992 21.1143L17.0052 23.6773C17.0737 23.7796 17.1656 23.8641 17.2734 23.9237C17.3811 23.9833 17.5016 24.0164 17.6246 24.02C17.7477 24.0237 17.8699 23.998 17.981 23.9449C18.0921 23.8918 18.189 23.813 18.2635 23.7149L24.0447 16.4004" stroke="white" stroke-width="1.5" stroke-linecap="round" stroke-linejoin="round"/>
</g>
</g>
</svg>
