<svg width="24" height="24" viewBox="0 0 24 24" fill="none" xmlns="http://www.w3.org/2000/svg">
<rect width="24" height="24" fill="white"/>
<g clip-path="url(#clip0_7_9252)">
<path d="M15.2418 4.0601H16.0446C16.11 4.07667 16.1775 4.08342 16.2449 4.08013C17.1825 4.14994 18.0877 4.45348 18.8779 4.96304C19.1948 5.16481 19.4836 5.40781 19.7365 5.68567C19.9388 5.90955 20.1204 6.15143 20.2788 6.4083C20.379 6.56856 20.4591 6.72883 20.5392 6.8891C20.7765 7.40232 20.9255 7.95188 20.98 8.51467C21 8.61483 20.98 8.6964 21 8.80086V9.12139C21.0033 9.24908 20.9966 9.37682 20.98 9.50346C20.9596 9.82662 20.9194 10.1482 20.8598 10.4665C20.8197 10.6668 20.7596 10.8471 20.7167 11.0274C20.336 12.5729 19.954 14.0983 19.5533 15.6437C19.4932 15.9299 19.4102 16.2046 19.353 16.4865C19.3157 16.6703 19.2475 16.8465 19.1512 17.0074C19.0727 17.133 18.9706 17.2424 18.8507 17.3294C18.5839 17.5439 18.25 17.6574 17.9077 17.6499C17.7653 17.6328 17.6243 17.606 17.4856 17.5698C17.3374 17.5169 17.2012 17.4352 17.0849 17.3294C17.0084 17.2614 16.9473 17.1778 16.9058 17.0843C16.8644 16.9907 16.8435 16.8894 16.8445 16.787C16.838 16.6654 16.8515 16.5436 16.8846 16.4264C17.0649 15.7109 17.2452 14.9611 17.4255 14.2385C17.5056 13.938 17.5686 13.616 17.6473 13.3155C17.9077 12.2523 18.1882 11.1891 18.45 10.1245C18.5112 9.86049 18.5514 9.59207 18.5702 9.32173C18.5836 9.11455 18.5769 8.90658 18.5502 8.70069C18.531 8.44481 18.4696 8.19387 18.3685 7.95803C18.2872 7.72525 18.1586 7.51184 17.9907 7.33127C17.9357 7.26625 17.8754 7.20594 17.8104 7.15096L17.7303 7.07083C17.5547 6.93833 17.3663 6.82376 17.1679 6.72883C16.9906 6.65305 16.8096 6.58619 16.6256 6.5285C16.3644 6.44997 16.095 6.40195 15.8228 6.38541C15.7026 6.36537 15.5824 6.3854 15.4622 6.36537C15.342 6.34534 15.2819 6.38541 15.176 6.38541C14.7294 6.42585 14.2903 6.52694 13.871 6.6859C13.5966 6.78535 13.3302 6.90542 13.0739 7.04508C12.7627 7.2269 12.4674 7.43464 12.191 7.66611L11.9048 7.9523C11.7168 8.15485 11.5609 8.38505 11.4426 8.63487C11.3224 9.0155 11.2223 9.3761 11.1221 9.75817C11.0019 10.239 10.8617 10.7212 10.74 11.2235C10.5969 11.7644 10.4539 12.3267 10.2993 12.8676C10.2192 13.0894 10.1562 13.3298 10.0789 13.5502C10.048 13.6803 10.0079 13.8079 9.95874 13.9323C9.86093 14.1375 9.71479 14.316 9.53284 14.4523C9.3509 14.5886 9.13859 14.6788 8.91414 14.715C8.60581 14.7801 8.28429 14.7292 8.01121 14.5719C7.92861 14.5159 7.85441 14.4485 7.79084 14.3716C7.67922 14.2339 7.60966 14.067 7.59051 13.8908C7.57027 13.8047 7.57027 13.715 7.59051 13.6289C7.95111 12.4455 8.23301 11.222 8.55354 10.0172C8.73384 9.3346 8.91414 8.65347 9.09588 7.99094C9.14183 7.82866 9.2092 7.67322 9.29621 7.52874C9.5239 7.08512 9.81081 6.6745 10.1491 6.30813L10.5297 5.92607C10.726 5.73739 10.9413 5.56955 11.1722 5.42523C11.2866 5.33888 11.4056 5.25863 11.5285 5.18483C12.0055 4.89035 12.5096 4.64214 13.0339 4.4436C13.1541 4.40353 13.2943 4.342 13.4159 4.3005C13.692 4.21468 13.9736 4.14774 14.2588 4.10017C14.4791 4.0601 14.6995 4.04007 14.9399 4C15.1216 4.0601 15.1817 4.08014 15.2418 4.0601Z" fill="#00579C"/>
<path d="M5.8104 6.36823C5.89053 6.36823 5.97067 6.3482 6.0508 6.3482C6.25913 6.35531 6.46395 6.40396 6.65323 6.49129C6.78855 6.55725 6.90552 6.65555 6.9938 6.77748C7.04636 6.85255 7.08093 6.93871 7.09483 7.02928C7.10873 7.11986 7.10158 7.21242 7.07393 7.29978C6.97377 7.70045 6.8736 8.08251 6.77343 8.48318C6.65323 8.96541 6.53303 9.44622 6.4114 9.91414C6.33127 10.2747 6.2311 10.6368 6.12521 10.9974C6.02504 11.4267 5.92487 11.8202 5.82471 12.2423C5.74457 12.5628 5.66301 12.9048 5.58288 13.2254C5.48396 13.5789 5.42351 13.9421 5.40258 14.3086C5.38163 14.4029 5.38163 14.5006 5.40258 14.5948C5.40795 14.9776 5.49683 15.3546 5.66301 15.6995C5.73904 15.8401 5.82663 15.9741 5.92487 16.1002C6.00501 16.1803 6.08514 16.2805 6.16528 16.362C6.26341 16.4532 6.37085 16.5337 6.48581 16.6024C6.60909 16.6767 6.73667 16.7436 6.86787 16.8028C7.16021 16.9171 7.46247 17.0043 7.77081 17.0632C8.06294 17.107 8.35881 17.1204 8.65371 17.1033C9.39397 17.0545 10.1147 16.845 10.7658 16.4894C11.1478 16.2832 11.505 16.034 11.8304 15.7467C12.0183 15.5716 12.1862 15.3763 12.3313 15.1643C12.4286 15.0377 12.5036 14.8955 12.5531 14.7436C12.9337 13.4186 13.2685 12.0548 13.6163 10.7098L13.8567 9.92702C13.9239 9.68093 14.0479 9.45401 14.2187 9.26449C14.3173 9.14859 14.432 9.0474 14.5593 8.96399C14.8326 8.78796 15.1605 8.71681 15.4822 8.76365C15.6346 8.78251 15.7835 8.82298 15.9244 8.88385C16.098 8.96054 16.2396 9.09507 16.3251 9.26449C16.3986 9.42867 16.4128 9.61331 16.3651 9.78679C16.1247 10.5896 15.9044 11.3923 15.7026 12.2194C15.4164 13.3026 15.1417 14.4059 14.8197 15.4906C14.8015 15.5937 14.7604 15.6915 14.6995 15.7768C14.6194 15.9571 14.5192 16.1173 14.4133 16.2976C14.2355 16.5931 14.0268 16.869 13.7908 17.1204C13.6907 17.2421 13.5705 17.3422 13.4703 17.4424C13.2675 17.6438 13.0456 17.8249 12.8078 17.9833C12.4394 18.2482 12.0504 18.4832 11.6444 18.6859C11.4622 18.7783 11.2744 18.859 11.082 18.9277C10.9123 18.9998 10.7378 19.0601 10.5597 19.108C10.2993 19.1882 10.0188 19.2683 9.75698 19.3284L9.45647 19.3885L8.97424 19.4486C8.89411 19.4686 8.81398 19.4486 8.73384 19.4686H7.9368C7.89673 19.4686 7.8767 19.4486 7.83663 19.4486C7.72216 19.4452 7.60821 19.4317 7.49606 19.4085C7.14239 19.364 6.793 19.2903 6.45147 19.1882C6.07388 19.0761 5.71042 18.921 5.36823 18.726C5.11732 18.5838 4.88186 18.416 4.66563 18.2251C4.60553 18.165 4.52254 18.1049 4.4653 18.0448C4.35535 17.9471 4.25475 17.8393 4.1648 17.7229C3.56308 17.0258 3.179 16.1676 3.0601 15.2545C3.04859 15.1065 3.02852 14.9594 3 14.8137V13.9909C3.01535 13.939 3.02212 13.8848 3.02003 13.8307C3.05324 13.4226 3.12755 13.0189 3.24183 12.6258C3.42213 11.9432 3.5824 11.2621 3.7627 10.5996C3.9058 10.0572 4.04889 9.51634 4.1648 8.974L4.5254 7.52874C4.56547 7.40854 4.5855 7.28833 4.62557 7.16813C4.67931 7.03152 4.76178 6.90806 4.8674 6.8061C4.9275 6.76603 4.96756 6.70593 5.02766 6.66301C5.25631 6.49427 5.52725 6.39224 5.8104 6.36823Z" fill="#DA251C"/>
</g>
<defs>
<clipPath id="clip0_7_9252">
<rect width="18" height="15.4515" fill="white" transform="translate(3 4)"/>
</clipPath>
</defs>
</svg>
